<?xml version="1.0" encoding="UTF-8" standalone="no"?>
<!-- Created with Inkscape (http://www.inkscape.org/) -->

<svg
   width="147.59mm"
   height="147.59mm"
   viewBox="0 0 147.58999 147.59"
   version="1.1"
   id="svg1"
   xml:space="preserve"
   inkscape:version="1.3 (0e150ed6c4, 2023-07-21)"
   sodipodi:docname="logo3.svg"
   xmlns:inkscape="http://www.inkscape.org/namespaces/inkscape"
   xmlns:sodipodi="http://sodipodi.sourceforge.net/DTD/sodipodi-0.dtd"
   xmlns:xlink="http://www.w3.org/1999/xlink"
   xmlns="http://www.w3.org/2000/svg"
   xmlns:svg="http://www.w3.org/2000/svg"><sodipodi:namedview
     id="namedview1"
     pagecolor="#ffffff"
     bordercolor="#000000"
     borderopacity="0.25"
     inkscape:showpageshadow="2"
     inkscape:pageopacity="0.0"
     inkscape:pagecheckerboard="0"
     inkscape:deskcolor="#d1d1d1"
     inkscape:document-units="mm"
     inkscape:zoom="0.71268238"
     inkscape:cx="396.38976"
     inkscape:cy="1572.9307"
     inkscape:window-width="2560"
     inkscape:window-height="1009"
     inkscape:window-x="-8"
     inkscape:window-y="-8"
     inkscape:window-maximized="1"
     inkscape:current-layer="layer1"
     inkscape:export-bgcolor="#35353500"
     showguides="false" /><defs
     id="defs1"><linearGradient
       id="swatch1"
       inkscape:swatch="solid"><stop
         style="stop-color:#f3f3f3;stop-opacity:1;"
         offset="0"
         id="stop1" /></linearGradient><linearGradient
       inkscape:collect="always"
       xlink:href="#swatch1"
       id="linearGradient5"
       gradientUnits="userSpaceOnUse"
       x1="237.75267"
       y1="517.45355"
       x2="377.34268"
       y2="517.45355"
       gradientTransform="translate(-148.17251,160.08955)" /></defs><g
     inkscape:label="Layer 1"
     inkscape:groupmode="layer"
     id="layer1"
     transform="translate(-85.580156,-603.7481)"><circle
       style="fill:#ff9933;fill-opacity:0;stroke:url(#linearGradient5);stroke-width:8;stroke-dasharray:none"
       id="path1-5"
       cx="159.37515"
       cy="677.54309"
       r="69.794998"
       inkscape:export-filename="logo7-white.png"
       inkscape:export-xdpi="96"
       inkscape:export-ydpi="96" /><rect
       style="fill:#0097a7;fill-opacity:0.168627;stroke-width:0.315706"
       id="rect37-7-2"
       width="130.67999"
       height="130.67999"
       x="94.035156"
       y="612.20312"
       ry="65.339996"
       inkscape:export-filename="..\GitHub\ShopperPrime\shopperprime\public\js\posapp\components\pos\logo.svg"
       inkscape:export-xdpi="96"
       inkscape:export-ydpi="96" /><path
       id="rect17-7"
       style="fill:#ffffff;fill-opacity:1;stroke-width:0.226526"
       d="m 156.20239,685.42144 c -2.05425,0 -3.70826,1.55795 -3.70826,3.49345 v 7.3898 c 0,1.9355 1.65401,3.4939 3.70826,3.4939 h 58.88308 c 2.05426,0 3.7078,-1.5584 3.7078,-3.4939 v -7.3898 c 0,-1.9355 -1.65354,-3.49345 -3.7078,-3.49345 z m 35.08569,3.4791 c 0.16769,0 0.33235,0.0103 0.49362,0.0273 0.16123,0.0153 0.30779,0.0335 0.44002,0.0548 v 0.78397 h -0.0485 c -0.0806,-0.0273 -0.19658,-0.0532 -0.34818,-0.0775 -0.15158,-0.0273 -0.28698,-0.0414 -0.40633,-0.0414 -0.38378,0 -0.6579,0.082 -0.82236,0.24624 -0.16127,0.16104 -0.24197,0.45427 -0.24197,0.87967 v 0.17316 h 1.50482 v 0.71129 h -1.47571 v 4.38011 h -0.90967 v -4.38011 h -0.61413 v -0.71129 h 0.61413 v -0.16838 c 0,-0.61381 0.15677,-1.0805 0.46963,-1.39956 0.31284,-0.31904 0.76084,-0.47855 1.3446,-0.47855 z m 15.07919,0.0457 h 0.90917 v 7.0922 h -0.90917 z m -21.15529,0.16401 c 0.49019,0 0.93221,0.0805 1.32567,0.24145 0.39346,0.16106 0.72551,0.38784 0.99644,0.67955 0.27411,0.2978 0.48703,0.66662 0.63859,1.10721 0.15158,0.44061 0.22761,0.94357 0.22761,1.50876 0,0.54999 -0.0743,1.04686 -0.22252,1.4905 -0.14837,0.44365 -0.36309,0.81595 -0.64368,1.11676 -0.29347,0.31604 -0.6367,0.54982 -1.03015,0.70175 -0.39024,0.1489 -0.8211,0.22362 -1.29196,0.22362 -0.48698,0 -0.92528,-0.0777 -1.31551,-0.23275 -0.39025,-0.15498 -0.72601,-0.38571 -1.00659,-0.69262 -0.27739,-0.30081 -0.49026,-0.67137 -0.63862,-1.11198 -0.14836,-0.44061 -0.22209,-0.93921 -0.22209,-1.49528 0,-0.57125 0.0736,-1.07249 0.22209,-1.50395 0.15157,-0.43151 0.36631,-0.80206 0.64365,-1.11202 0.27738,-0.30082 0.61131,-0.52894 1.00156,-0.68389 0.39345,-0.15802 0.83174,-0.23711 1.31551,-0.23711 z m 12.607,0.0183 c 0.40314,0 0.78394,0.0381 1.14188,0.11399 0.36123,0.0759 0.69469,0.18392 1.0011,0.32367 v 1.08023 h -0.0726 c -0.22898,-0.19751 -0.52258,-0.36924 -0.88055,-0.51508 -0.35796,-0.14892 -0.73365,-0.2232 -1.12713,-0.2232 -0.44505,0 -0.80446,0.0988 -1.07862,0.29627 -0.27415,0.19447 -0.4114,0.451 -0.4114,0.77004 0,0.28868 0.0807,0.5181 0.24193,0.68826 0.16125,0.17019 0.39501,0.2947 0.70139,0.3737 0.20319,0.0518 0.45179,0.11116 0.74527,0.17795 0.29347,0.0639 0.53695,0.12323 0.73047,0.17794 0.49666,0.1428 0.85935,0.35823 1.08834,0.64692 0.22897,0.28866 0.34353,0.64437 0.34353,1.06674 0,0.26437 -0.0578,0.52569 -0.17409,0.78397 -0.11278,0.25827 -0.2724,0.47721 -0.47883,0.65649 -0.23218,0.19752 -0.49517,0.34915 -0.78864,0.45549 -0.29026,0.10629 -0.65481,0.15969 -1.09343,0.15969 -0.52243,0 -0.96769,-0.0502 -1.33534,-0.15054 -0.36444,-0.10331 -0.70766,-0.22918 -1.03016,-0.37807 v -1.13069 h 0.0677 c 0.31608,0.27955 0.67366,0.49717 1.07354,0.65215 0.39993,0.15192 0.78534,0.22752 1.15624,0.22752 0.5289,0 0.92917,-0.10306 1.20007,-0.30975 0.2709,-0.20967 0.40633,-0.48454 0.40633,-0.82487 0,-0.27044 -0.0711,-0.49111 -0.21287,-0.66127 -0.14184,-0.17018 -0.36776,-0.29602 -0.67735,-0.37808 -0.22256,-0.0607 -0.42573,-0.11103 -0.60953,-0.15051 -0.18382,-0.0395 -0.41434,-0.0928 -0.69167,-0.15966 -0.24834,-0.0608 -0.47096,-0.13812 -0.66769,-0.23232 -0.19674,-0.0943 -0.37114,-0.217 -0.52272,-0.36894 -0.14836,-0.1489 -0.26431,-0.32366 -0.34812,-0.52422 -0.0806,-0.20359 -0.12099,-0.43782 -0.12099,-0.70218 0,-0.55 0.22724,-1.01014 0.68199,-1.38087 0.45476,-0.37375 1.0354,-0.56078 1.74168,-0.56078 z m -29.6934,0.0775 h 1.03521 v 0.88881 h -1.03521 z m -10.49776,0.0458 h 1.80957 c 0.42569,0 0.78836,0.0332 1.08833,0.1 0.29993,0.067 0.56429,0.17478 0.79327,0.32368 0.26769,0.1732 0.47732,0.39344 0.6289,0.66083 0.15156,0.26437 0.22764,0.58514 0.22764,0.96191 0,0.29475 -0.0565,0.57441 -0.16947,0.83878 -0.10962,0.26132 -0.2627,0.4846 -0.45941,0.66999 -0.24835,0.23092 -0.54055,0.40572 -0.87592,0.52423 -0.33543,0.11851 -0.75932,0.1775 -1.27213,0.1775 h -0.81268 v 2.52984 h -0.9581 z m 18.38806,0.23231 h 0.90919 v 1.46309 h 1.67381 v 0.71132 h -1.67381 v 2.42018 c 0,0.2583 0.004,0.45711 0.0146,0.59689 0.0107,0.13979 0.0465,0.27044 0.1112,0.39201 0.055,0.10627 0.14342,0.18717 0.26598,0.24187 0.12242,0.0518 0.28863,0.0775 0.49824,0.0775 0.14835,0 0.29213,-0.0198 0.4308,-0.0592 0.13869,-0.0425 0.23839,-0.0776 0.29969,-0.10485 h 0.0532 v 0.77003 c -0.17094,0.0456 -0.34486,0.0806 -0.52224,0.10484 -0.17414,0.0273 -0.33555,0.0414 -0.48391,0.0414 -0.49665,0 -0.88347,-0.1324 -1.16081,-0.39676 -0.27736,-0.2674 -0.41602,-0.68821 -0.41602,-1.26251 v -2.82155 h -0.6146 v -0.71131 h 0.6146 z m 9.20116,0.40591 c -0.34828,0 -0.653,0.0576 -0.91424,0.17315 -0.25801,0.11245 -0.48714,0.28854 -0.68706,0.5286 -0.19031,0.23091 -0.33687,0.52109 -0.44006,0.87053 -0.10013,0.34946 -0.15008,0.74446 -0.15008,1.18508 0,0.89033 0.19806,1.57246 0.59473,2.0465 0.39668,0.47099 0.92914,0.70651 1.59671,0.70651 0.6676,0 1.19818,-0.23552 1.59165,-0.70651 0.39668,-0.47404 0.59471,-1.15617 0.59471,-2.0465 0,-0.44972 -0.0514,-0.84781 -0.15465,-1.19422 -0.10334,-0.34639 -0.2484,-0.63349 -0.43547,-0.86139 -0.19024,-0.23398 -0.42076,-0.40876 -0.69166,-0.52425 -0.26772,-0.1185 -0.56916,-0.1775 -0.90458,-0.1775 z m -26.63112,0.13661 v 2.71212 h 0.65291 c 0.38703,0 0.70007,-0.0289 0.93871,-0.0866 0.23867,-0.0608 0.43672,-0.1674 0.59477,-0.31934 0.14184,-0.13672 0.24531,-0.28529 0.30979,-0.44634 0.0644,-0.16105 0.0965,-0.34982 0.0965,-0.56558 0,-0.23395 -0.0435,-0.43717 -0.13062,-0.61037 -0.0837,-0.17321 -0.21277,-0.31479 -0.38694,-0.42416 -0.15159,-0.0943 -0.32875,-0.16107 -0.53195,-0.20057 -0.19992,-0.0394 -0.44992,-0.0592 -0.74985,-0.0592 z m 6.24048,0.77962 c 0.72885,0 1.31234,0.23551 1.75093,0.70653 0.43862,0.46796 0.658,1.12864 0.658,1.98253 0,0.85689 -0.21938,1.51935 -0.658,1.98731 -0.43859,0.46491 -1.02208,0.69739 -1.75093,0.69739 -0.75146,0 -1.34326,-0.24033 -1.77542,-0.72045 -0.42893,-0.48314 -0.64365,-1.13775 -0.64365,-1.96425 0,-0.85082 0.2212,-1.51156 0.66309,-1.98253 0.44503,-0.47102 1.03036,-0.70653 1.75598,-0.70653 z m 8.15626,0 c 0.53215,0 0.94818,0.16561 1.24809,0.49682 0.29995,0.32819 0.44973,0.80494 0.44973,1.43089 v 3.30466 h -0.90916 v -2.89877 c 0,-0.23395 -0.0116,-0.45113 -0.0387,-0.65168 -0.0226,-0.20359 -0.0679,-0.36619 -0.13581,-0.4877 -0.0744,-0.12763 -0.17713,-0.22202 -0.30932,-0.2828 -0.13222,-0.0639 -0.31312,-0.0956 -0.54211,-0.0956 -0.22576,0 -0.45953,0.0576 -0.70141,0.17313 -0.23864,0.11246 -0.47241,0.2597 -0.70137,0.44201 v 3.8015 h -0.9092 v -5.09141 h 0.9092 v 0.56556 c 0.2709,-0.22789 0.53851,-0.40268 0.80297,-0.52423 0.26447,-0.12156 0.54367,-0.18229 0.83714,-0.18229 z m 37.75778,0 c 0.33541,0 0.63179,0.0455 0.88981,0.13661 0.25798,0.0911 0.48387,0.23405 0.67736,0.42851 0.1935,0.19447 0.34192,0.43305 0.44511,0.71567 0.10335,0.27955 0.15469,0.62259 0.15469,1.02977 v 0.46507 h -3.74428 c 0,0.59253 0.15817,1.04526 0.4742,1.35822 0.31606,0.31299 0.75299,0.46944 1.31092,0.46944 0.19994,0 0.39522,-0.0209 0.58549,-0.0637 0.19349,-0.0425 0.36742,-0.0976 0.52221,-0.16445 0.16449,-0.0699 0.30317,-0.13674 0.41605,-0.20055 0.11278,-0.0669 0.20656,-0.12891 0.28072,-0.18663 h 0.0532 v 0.93448 c -0.10646,0.0394 -0.23864,0.0894 -0.39664,0.1501 -0.15802,0.0578 -0.29995,0.10353 -0.42576,0.13703 -0.17736,0.0457 -0.33833,0.0807 -0.48345,0.10487 -0.14183,0.0244 -0.32277,0.0362 -0.54209,0.0362 -0.86109,0 -1.53034,-0.22769 -2.00765,-0.68348 -0.47409,-0.45884 -0.71111,-1.10906 -0.71111,-1.95076 0,-0.82956 0.23054,-1.48897 0.69174,-1.97819 0.46118,-0.49225 1.06457,-0.73828 1.80954,-0.73828 z m -7.8806,0.0183 c 0.37092,0 0.68349,0.0271 0.93828,0.0818 0.25476,0.0548 0.48389,0.15347 0.68707,0.29627 0.19674,0.1398 0.34328,0.3207 0.44002,0.54252 0.0967,0.22183 0.14546,0.49232 0.14546,0.81137 v 3.48216 h -0.90455 v -0.54251 c -0.0743,0.0518 -0.17434,0.12465 -0.30011,0.21883 -0.12271,0.0911 -0.24177,0.16414 -0.35786,0.21883 -0.16127,0.079 -0.31756,0.13975 -0.46913,0.1823 -0.14836,0.0425 -0.35799,0.0639 -0.6289,0.0639 -0.22255,0 -0.43403,-0.0397 -0.63396,-0.11879 -0.19998,-0.0789 -0.37573,-0.18957 -0.52732,-0.33236 -0.14514,-0.1398 -0.26109,-0.31152 -0.34818,-0.51511 -0.0872,-0.20664 -0.13062,-0.42382 -0.13062,-0.65172 0,-0.35248 0.0787,-0.65182 0.23688,-0.89795 0.15804,-0.24916 0.40802,-0.44669 0.74989,-0.59253 0.30313,-0.13066 0.66118,-0.22068 1.07402,-0.2693 0.41279,-0.0518 0.85806,-0.0893 1.33536,-0.11352 v -0.16446 c 0,-0.20055 -0.0324,-0.36136 -0.0967,-0.48291 -0.0644,-0.12457 -0.15494,-0.22028 -0.27105,-0.28714 -0.11608,-0.0699 -0.25802,-0.11576 -0.42571,-0.13705 -0.16769,-0.0244 -0.34023,-0.0362 -0.51759,-0.0362 -0.20967,0 -0.4564,0.0302 -0.74022,0.0909 -0.28379,0.0578 -0.56763,0.14294 -0.85144,0.25537 h -0.0532 v -0.87054 c 0.1677,-0.0457 0.40794,-0.0957 0.72077,-0.15052 0.31283,-0.0548 0.62266,-0.0818 0.92903,-0.0818 z m -34.67147,0.12269 h 0.90962 v 5.09142 h -0.90962 z m 42.49852,0.56557 c -0.24189,0 -0.44826,0.0347 -0.6192,0.10441 -0.1677,0.067 -0.32076,0.16562 -0.45942,0.29628 -0.13552,0.13369 -0.23844,0.28271 -0.30939,0.4468 -0.0711,0.16105 -0.11638,0.34938 -0.13579,0.56513 h 2.85912 c -0.006,-0.23094 -0.0355,-0.42978 -0.0874,-0.59689 -0.0515,-0.16713 -0.1253,-0.30827 -0.22208,-0.42374 -0.10645,-0.12762 -0.24369,-0.22508 -0.41144,-0.29192 -0.16447,-0.067 -0.36945,-0.1 -0.61458,-0.1 z m -45.86049,0.0317 c -0.47408,0 -0.84001,0.16079 -1.09803,0.48289 -0.25477,0.31907 -0.38234,0.80849 -0.38234,1.46787 0,0.63813 0.12746,1.12275 0.38234,1.45396 0.25802,0.32818 0.62395,0.49247 1.09803,0.49247 0.46766,0 0.82893,-0.16125 1.0837,-0.48333 0.25802,-0.32516 0.38696,-0.81282 0.38696,-1.4631 0,-0.65938 -0.12745,-1.1488 -0.38234,-1.46787 -0.25476,-0.3221 -0.61743,-0.48289 -1.08832,-0.48289 z m 39.33972,1.82764 c -0.21605,0.0183 -0.49019,0.0439 -0.82236,0.0775 -0.32895,0.0303 -0.59517,0.0743 -0.79834,0.13226 -0.24187,0.0699 -0.44183,0.17783 -0.59983,0.3237 -0.15802,0.1428 -0.23732,0.34338 -0.23732,0.60165 0,0.29173 0.0872,0.51196 0.26135,0.66085 0.17415,0.1489 0.42877,0.22319 0.76419,0.22319 0.287,0 0.54674,-0.0577 0.77895,-0.17315 0.2322,-0.11852 0.4502,-0.2627 0.65336,-0.43288 z" /><path
       id="rect15-6"
       style="fill:#ffffff;fill-opacity:1;stroke:#ffffff;stroke-width:1.21446;stroke-dasharray:none;stroke-opacity:1"
       d="m 118.61609,646.95439 c 8.24553,-3.6e-4 8.28968,0.003 9.06242,0.5227 1.20586,0.81261 1.35004,1.31367 1.3538,4.70961 0.005,4.64817 -0.32965,5.04324 -4.3649,5.14535 l -2.57222,0.065 4.5e-4,1.44346 4.5e-4,1.44346 10.33956,-0.0134 c 11.86408,-0.0156 11.9147,-0.008 12.68852,1.6954 0.3934,0.86615 0.426,1.6483 0.4187,10.00558 -0.005,6.40804 -0.0879,9.29906 -0.28152,9.86125 -0.42202,1.22529 -1.52663,1.84422 -3.29171,1.84422 h -1.45825 v 0.90238 0.90283 l 3.74761,0.0722 c 3.55796,0.0691 3.79046,0.10212 4.59396,0.64687 1.52442,1.03356 1.75726,1.87832 1.75726,6.36914 0,2.22617 -0.10606,4.20951 -0.24476,4.57559 -0.34813,0.9188 -1.10307,1.67272 -2.16519,2.16294 -0.87268,0.40277 -2.02445,0.42363 -23.29617,0.42363 -21.26891,0 -22.42307,-0.021 -23.29571,-0.42363 -1.06193,-0.49023 -1.8171,-1.24425 -2.16519,-2.16294 -0.13871,-0.36608 -0.24476,-2.34942 -0.24476,-4.57559 0,-4.49082 0.23284,-5.33558 1.75726,-6.36914 0.8035,-0.54478 1.03602,-0.57774 4.59396,-0.64687 l 3.74761,-0.0722 v -0.90283 -0.90238 h -1.45825 c -1.76507,0 -2.86968,-0.61893 -3.2917,-1.84422 -0.19314,-0.56076 -0.27778,-3.45147 -0.28691,-9.79938 -0.0149,-10.35953 0.003,-10.48309 1.68733,-11.29798 0.86519,-0.41882 1.40868,-0.46935 5.03954,-0.46935 h 4.06948 l -0.0682,-1.43449 -0.0686,-1.4345 -2.67354,-0.11476 c -2.95336,-0.12674 -3.40148,-0.32467 -4.01388,-1.77159 -0.48635,-1.14908 -0.42519,-5.92045 0.0892,-6.95012 0.78552,-1.57244 1,-1.60578 10.29428,-1.60619 z m -0.0591,1.37667 c -8.0358,0 -8.35841,0.0168 -8.80061,0.45903 -0.41131,0.41133 -0.45903,0.76474 -0.45903,3.40244 0,4.30737 -0.85586,3.94217 9.22737,3.94217 7.43999,0 8.20767,-0.0357 8.64596,-0.40167 0.44134,-0.36853 0.48316,-0.65357 0.50745,-3.45667 0.0227,-2.61493 -0.0313,-3.11913 -0.37611,-3.50016 -0.38459,-0.42498 -0.78134,-0.44514 -8.74503,-0.44514 z m 4.74101,1.82673 v 1.91729 c 0,1.05454 -0.0712,1.98839 -0.15781,2.07509 -0.0866,0.0866 -2.22981,0.12957 -4.76251,0.0955 l -4.60472,-0.0619 v -1.95091 -1.95091 l 4.76251,-0.0623 z m 1.64966,11.48536 c -18.11759,0 -18.32374,0.005 -18.82054,0.468 -0.50086,0.46663 -0.50208,0.49501 -0.50208,9.81821 0,8.09123 0.0482,9.41893 0.35728,9.86035 l 0.35727,0.51014 h 18.56504 18.56501 l 0.35728,-0.51014 c 0.30921,-0.44143 0.35729,-1.77 0.35729,-9.86932 0,-9.05315 -0.0151,-9.37417 -0.45904,-9.8182 -0.45137,-0.45137 -0.76536,-0.45904 -18.77751,-0.45904 z m -10.33641,3.71982 5.81776,0.0673 0.0677,1.54926 0.0677,1.54925 h -6.0679 c -5.32165,0 -6.0856,-0.0448 -6.20778,-0.36311 -0.26051,-0.67888 -0.14432,-2.33068 0.1829,-2.60226 0.23111,-0.1918 1.96358,-0.24844 6.13964,-0.20038 z m 5.24396,0.87056 h -5.39369 -5.3937 v 0.68855 0.68856 h 5.3937 5.39369 v -0.68856 z m 11.46788,0.22907 2.30324,4.5e-4 v 2.25663 c 0,1.24133 -0.0727,2.32946 -0.16137,2.41801 -0.0885,0.0886 -1.09558,0.13191 -2.23781,0.0959 l -2.07643,-0.0659 -0.065,-2.35256 -0.0659,-2.35257 z m 6.54934,0.11475 2.2952,4.6e-4 0.0668,2.04728 c 0.0368,1.12613 0.0128,2.18871 -0.0533,2.36109 -0.0927,0.24175 -0.63282,0.29816 -2.36197,0.24745 l -2.24185,-0.0659 v -2.2952 -2.29518 z m 2.40996,6.29609 v 2.31132 2.31088 l -2.35257,-0.065 -2.35257,-0.0654 v -2.18043 -2.18043 l 2.35257,-0.0655 z m -6.65606,0.0161 v 2.29518 2.2952 h -2.29518 -2.29519 v -2.2952 -2.29518 h 2.29519 z m -8.7217,13.88589 c -18.39934,0 -22.27706,0.054 -22.90571,0.31918 -1.27631,0.53839 -1.42329,1.12135 -1.42329,5.63307 v 4.0242 l 0.66973,0.74997 0.66927,0.74953 22.87568,0.0606 22.87568,0.0606 0.78359,-0.78359 0.78404,-0.78359 v -4.0511 c 0,-4.54052 -0.14605,-5.12054 -1.42374,-5.65952 -0.62867,-0.26519 -4.50591,-0.31918 -22.90525,-0.31918 z m -0.0564,4.49624 v 4.5e-4 c 1.0754,-0.012 1.82937,0.88802 1.44076,1.91012 -0.35364,0.93015 -1.23681,1.27072 -2.09929,0.80914 -1.06798,-0.57157 -0.94574,-2.37346 0.18021,-2.65606 0.16435,-0.0413 0.32468,-0.0619 0.47832,-0.0636 z" /><text
       xml:space="preserve"
       style="font-size:24.9373px;font-family:Tahoma;-inkscape-font-specification:Tahoma;fill:#ffffff;fill-opacity:1;stroke:#ffffff;stroke-width:1.74357;stroke-dasharray:none;stroke-opacity:1"
       x="121.92863"
       y="709.93774"
       id="text3-6"
       transform="scale(1.0783184,0.92736988)"><tspan
         sodipodi:role="line"
         id="tspan3-0"
         style="fill:#ffffff;fill-opacity:1;stroke-width:1.74357;stroke-dasharray:none"
         x="121.92863"
         y="709.93774">erpnext</tspan></text><text
       xml:space="preserve"
       style="font-size:25.2914px;font-family:Tahoma;-inkscape-font-specification:Tahoma;fill:#ffffff;fill-opacity:1;stroke:#ffffff;stroke-width:1.09485;stroke-dasharray:none;stroke-opacity:1"
       x="133.53413"
       y="743.74939"
       id="text3-5-5"
       transform="scale(1.0917929,0.91592462)"><tspan
         sodipodi:role="line"
         id="tspan3-2-2"
         style="fill:#ffffff;fill-opacity:1;stroke-width:1.09485;stroke-dasharray:none"
         x="133.53413"
         y="743.74939">Prime</tspan></text></g></svg>
