<?xml version="1.0" encoding="UTF-8" standalone="no"?>
<!-- Created with Inkscape (http://www.inkscape.org/) -->

<svg
   width="147.59mm"
   height="147.59mm"
   viewBox="0 0 147.58999 147.59"
   version="1.1"
   id="svg1"
   xml:space="preserve"
   inkscape:version="1.3 (0e150ed6c4, 2023-07-21)"
   sodipodi:docname="logo3.svg"
   xmlns:inkscape="http://www.inkscape.org/namespaces/inkscape"
   xmlns:sodipodi="http://sodipodi.sourceforge.net/DTD/sodipodi-0.dtd"
   xmlns:xlink="http://www.w3.org/1999/xlink"
   xmlns="http://www.w3.org/2000/svg"
   xmlns:svg="http://www.w3.org/2000/svg"><sodipodi:namedview
     id="namedview1"
     pagecolor="#ffffff"
     bordercolor="#000000"
     borderopacity="0.25"
     inkscape:showpageshadow="2"
     inkscape:pageopacity="0.0"
     inkscape:pagecheckerboard="0"
     inkscape:deskcolor="#d1d1d1"
     inkscape:document-units="mm"
     inkscape:zoom="0.71268238"
     inkscape:cx="396.38976"
     inkscape:cy="674.91496"
     inkscape:window-width="2560"
     inkscape:window-height="1009"
     inkscape:window-x="-8"
     inkscape:window-y="-8"
     inkscape:window-maximized="1"
     inkscape:current-layer="layer1"
     inkscape:export-bgcolor="#353535ff" /><defs
     id="defs1"><linearGradient
       id="swatch1"
       inkscape:swatch="solid"><stop
         style="stop-color:#ffffff;stop-opacity:1;"
         offset="0"
         id="stop1" /></linearGradient><linearGradient
       inkscape:collect="always"
       xlink:href="#swatch1"
       id="linearGradient1"
       x1="237.75267"
       y1="517.45355"
       x2="377.34268"
       y2="517.45355"
       gradientUnits="userSpaceOnUse" /></defs><g
     inkscape:label="Layer 1"
     inkscape:groupmode="layer"
     id="layer1"
     transform="translate(-233.75267,-443.65855)"><circle
       style="fill:#ff9933;fill-opacity:0;stroke:url(#linearGradient1);stroke-width:8;stroke-dasharray:none"
       id="path1"
       cx="307.54767"
       cy="517.45355"
       r="69.794998"
       inkscape:export-filename="logo6-white.png"
       inkscape:export-xdpi="96"
       inkscape:export-ydpi="96" /><rect
       style="fill:#0097a7;fill-opacity:0.168627;stroke-width:0.315706"
       id="rect37-7"
       width="130.67999"
       height="130.67999"
       x="242.20767"
       y="452.11356"
       ry="65.339996"
       inkscape:export-filename="..\GitHub\ShopperPrime\shopperprime\public\js\posapp\components\pos\logo.svg"
       inkscape:export-xdpi="96"
       inkscape:export-ydpi="96" /><path
       id="rect15-5-8"
       style="fill:#ffffff;fill-opacity:1;stroke-width:0.209049"
       d="m 297.95366,491.9571 v 17.03218 h 3.83148 v -8.7131 c 0.36488,-0.25541 0.70783,-0.44179 1.02891,-0.55856 0.32109,-0.1167 0.63837,-0.17515 0.95216,-0.17515 0.41594,0 0.74814,0.0622 0.99624,0.18618 0.24812,0.11681 0.43782,0.31391 0.56917,0.59121 0.10942,0.23353 0.18236,0.59844 0.21885,1.09465 0.0438,0.48892 0.0657,0.98141 0.0657,1.47764 v 6.09713 h 3.8531 v -8.00185 c 0,-1.50326 -0.33218,-2.64893 -0.99624,-3.43704 -0.66405,-0.79543 -1.62376,-1.19306 -2.87892,-1.19306 -0.72244,0 -1.38267,0.14953 -1.98106,0.44873 -0.59108,0.29918 -1.20038,0.71505 -1.82795,1.24776 v -6.09672 z m -7.9904,0.43769 c -1.9338,0 -3.5467,0.47426 -4.83833,1.42293 -1.29165,0.94136 -1.93738,2.17485 -1.93738,3.7 0,1.13109 0.27378,2.07216 0.82109,2.82379 0.54731,0.75163 1.45192,1.35015 2.71436,1.79528 0.54731,0.18974 1.13505,0.35045 1.76263,0.4818 0.63487,0.13135 1.22967,0.2697 1.78427,0.41565 0.44514,0.11669 0.82786,0.30313 1.14895,0.55854 0.32108,0.25541 0.4818,0.5872 0.4818,0.99585 0,0.36487 -0.0986,0.66061 -0.29562,0.88682 -0.19703,0.21893 -0.43768,0.39041 -0.72227,0.51447 -0.23352,0.10941 -0.54375,0.1898 -0.93052,0.24088 -0.37946,0.0511 -0.68597,0.0764 -0.91949,0.0764 -0.92677,0 -1.88274,-0.18598 -2.86788,-0.55815 -0.98516,-0.37216 -1.88646,-0.90482 -2.70376,-1.59807 h -0.37195 v 2.85687 l -8.95154,0.0119 -4.2e-4,-1.31473 -3.9e-4,-1.31472 2.3428,-0.0592 c 3.67535,-0.0929 3.98034,-0.45284 3.97561,-4.68645 -0.004,-3.09306 -0.13475,-3.54945 -1.23306,-4.28958 -0.70381,-0.47371 -0.74405,-0.4764 -8.25417,-0.47607 -8.46534,3.5e-4 -8.6607,0.0308 -9.37617,1.46292 -0.4685,0.93785 -0.52421,5.28366 -0.0812,6.33027 0.55779,1.31787 0.96593,1.49815 3.65589,1.61359 l 2.4351,0.10453 0.0625,1.30656 0.062,1.30656 h -3.70653 c -3.30702,0 -3.80205,0.046 -4.59008,0.42749 -1.53368,0.74222 -1.55044,0.85475 -1.53685,10.29035 0.008,5.78176 0.0854,8.41466 0.26132,8.9254 0.38438,1.11601 1.39048,1.67973 2.99813,1.67973 h 1.3282 v 0.82192 0.82231 l -3.41337,0.0657 c -3.24062,0.063 -3.45241,0.0929 -4.18424,0.58918 -1.38847,0.94138 -1.60054,1.71083 -1.60054,5.8011 0,2.02763 0.0966,3.83409 0.22294,4.16751 0.31704,0.83675 1.00484,1.52354 1.97207,1.97004 0.79482,0.36672 1.84607,0.38585 21.21806,0.38585 19.37453,0 20.42361,-0.019 21.21845,-0.38585 0.96738,-0.4465 1.65501,-1.13319 1.97208,-1.97004 0.12633,-0.33342 0.22293,-2.13988 0.22293,-4.16751 0,-4.09027 -0.21206,-4.85972 -1.60052,-5.8011 -0.73184,-0.49618 -0.94363,-0.52621 -4.18425,-0.58918 l -3.41337,-0.0657 v -0.82231 -0.82192 h 1.32819 c 1.60766,0 2.61376,-0.56372 2.99813,-1.67973 0.17637,-0.51204 0.25167,-3.14523 0.25642,-8.98176 0.007,-7.61191 -0.023,-8.32431 -0.38135,-9.11322 -0.19586,-0.43129 -0.34804,-0.74032 -0.68717,-0.96561 1.10007,-0.9567 1.65728,-2.18336 1.65728,-3.68695 0,-1.13109 -0.2771,-2.03944 -0.8317,-2.7254 -0.5473,-0.69323 -1.38647,-1.24412 -2.51756,-1.65279 -0.57651,-0.20432 -1.12034,-0.36503 -1.63117,-0.48178 -0.50351,-0.11682 -1.02872,-0.2373 -1.57603,-0.36134 -0.84649,-0.19704 -1.41932,-0.41573 -1.71852,-0.65655 -0.2919,-0.24812 -0.43811,-0.5803 -0.43811,-0.99626 0,-0.28459 0.0912,-0.53974 0.27356,-0.76596 0.18974,-0.23351 0.41257,-0.40873 0.66798,-0.52547 0.31379,-0.14595 0.61284,-0.24454 0.89744,-0.29562 0.2846,-0.0511 0.60561,-0.0767 0.96317,-0.0767 0.91947,0 1.81333,0.17892 2.68172,0.53649 0.87568,0.35757 1.61668,0.79538 2.22236,1.3135 h 0.36093 v -3.72164 c -0.75893,-0.33569 -1.62004,-0.60202 -2.58329,-0.79904 -0.95598,-0.19703 -1.91899,-0.29561 -2.88954,-0.29561 z m -19.04916,3.73798 c 7.25342,0 7.61479,0.0184 7.96509,0.40543 0.31404,0.34706 0.36318,0.8063 0.34256,3.188 -0.0221,2.55311 -0.0603,2.81272 -0.46219,3.14838 -0.39921,0.33338 -1.09842,0.36585 -7.87485,0.36585 -9.18393,0 -8.40443,0.33262 -8.40443,-3.59058 0,-2.40246 0.0434,-2.72435 0.41811,-3.09899 0.40276,-0.40277 0.69659,-0.41809 8.01571,-0.41809 z m 46.84123,0.18088 c -2.00678,0 -3.56831,0.57988 -4.68482,1.74017 -1.10921,1.15298 -1.66381,2.75137 -1.66381,4.79464 0,2.02138 0.5546,3.61564 1.66381,4.78322 1.11651,1.16027 2.67804,1.74057 4.68482,1.74057 2.02138,0 3.58291,-0.5803 4.68481,-1.74057 1.10921,-1.16758 1.66383,-2.76184 1.66383,-4.78322 0,-2.02867 -0.55462,-3.62334 -1.66383,-4.78363 -1.10919,-1.16758 -2.67074,-1.75118 -4.68481,-1.75118 z m 28.16443,0 c -2.07246,0 -3.68535,0.5981 -4.83834,1.79487 -1.15299,1.19677 -1.72955,2.7989 -1.72955,4.80568 0,2.05056 0.61674,3.63032 1.85,4.73953 1.24056,1.10921 3.0212,1.66381 5.34178,1.66381 0.63487,0 1.17126,-0.0327 1.6091,-0.0984 0.44513,-0.0583 0.87549,-0.14246 1.29145,-0.25191 0.45243,-0.10942 0.80658,-0.21549 1.06197,-0.31766 0.26272,-0.10942 0.551,-0.22586 0.86478,-0.34991 v -3.1635 h -0.40503 c -0.16784,0.12406 -0.38695,0.26613 -0.65695,0.42667 -0.26271,0.16055 -0.55098,0.31049 -0.86477,0.44913 -0.35758,0.16055 -0.75148,0.29185 -1.18203,0.39401 -0.43054,0.0949 -0.86836,0.14209 -1.3135,0.14209 -0.51812,0 -0.9961,-0.0473 -1.43394,-0.14209 -0.43785,-0.10214 -0.82098,-0.2666 -1.14936,-0.49282 -0.33567,-0.22621 -0.60573,-0.529 -0.81006,-0.90846 -0.20433,-0.38676 -0.32487,-0.86475 -0.36136,-1.43394 h 8.39586 v -1.37923 c 0,-1.89003 -0.47427,-3.34221 -1.42293,-4.35656 -0.94866,-1.01433 -2.36439,-1.52131 -4.24712,-1.52131 z m -12.20486,0.0437 c -0.76622,0 -1.44137,0.14952 -2.02517,0.44872 -0.58378,0.29919 -1.15662,0.68978 -1.71852,1.1714 v -1.28083 h -3.83106 v 16.80232 h 3.83106 v -5.12292 c 0.51082,0.29189 0.99253,0.50727 1.44497,0.64593 0.45244,0.13865 0.9851,0.20782 1.59808,0.20782 1.45948,0 2.68551,-0.60184 3.67796,-1.8059 0.99974,-1.20407 1.49967,-2.78757 1.49967,-4.75056 0,-1.9484 -0.39059,-3.48839 -1.1714,-4.61948 -0.78083,-1.1311 -1.8826,-1.69649 -3.30559,-1.69649 z m 27.26658,0.29561 c -0.32837,0 -0.67879,0.0622 -1.05095,0.18618 -0.36488,0.1167 -0.68588,0.25883 -0.96318,0.42667 -0.25541,0.14596 -0.53997,0.3431 -0.85375,0.59122 -0.30649,0.24081 -0.54715,0.44129 -0.72228,0.60183 v -1.76222 h -3.83147 v 12.29266 h 3.83147 v -8.23172 c 0.41594,-0.16054 0.84258,-0.2993 1.28042,-0.41605 0.44514,-0.1167 0.86845,-0.17516 1.26981,-0.17516 0.33568,0 0.64219,0.0149 0.91949,0.044 0.2773,0.0218 0.48895,0.0583 0.6349,0.10942 h 0.31725 v -3.62324 c -0.12406,-0.0145 -0.2624,-0.0254 -0.41565,-0.0327 -0.15324,-0.007 -0.292,-0.0107 -0.41606,-0.0107 z m -85.74923,1.14364 -4.33775,0.0563 -4.33776,0.0568 v 1.77692 1.77692 l 4.19404,0.0563 c 2.30681,0.031 4.25883,-0.008 4.33776,-0.087 0.0789,-0.079 0.14371,-0.92953 0.14371,-1.89001 z m 70.3919,0.97992 c 0.72974,0 1.26986,0.21166 1.62013,0.6349 0.35757,0.42325 0.54728,1.03958 0.56917,1.84959 h -4.63051 c 0.0438,-0.76621 0.27367,-1.37179 0.68961,-1.81693 0.42325,-0.44513 1.00727,-0.66756 1.7516,-0.66756 z m -27.86882,0.28457 c 0.36488,0 0.6896,0.0622 0.97421,0.18619 0.28459,0.1167 0.54014,0.32801 0.76637,0.6345 0.21163,0.2919 0.37565,0.68249 0.4924,1.17141 0.12406,0.48163 0.18619,1.08719 0.18619,1.81693 0,0.78083 -0.0583,1.39383 -0.17516,1.83897 -0.1167,0.43785 -0.28824,0.81394 -0.51446,1.12773 -0.18973,0.2627 -0.44528,0.45945 -0.76637,0.59081 -0.31379,0.13134 -0.62403,0.1972 -0.93052,0.1972 -0.37216,0 -0.7114,-0.0659 -1.01788,-0.1972 -0.30649,-0.13136 -0.56164,-0.33929 -0.76597,-0.62389 -0.19703,-0.2773 -0.35774,-0.64593 -0.4818,-1.10567 -0.12405,-0.46704 -0.18618,-1.07632 -0.18618,-1.82795 0,-0.75163 0.0659,-1.37542 0.19722,-1.87164 0.13133,-0.49623 0.30655,-0.88682 0.52547,-1.17141 0.23351,-0.29919 0.48867,-0.49966 0.76596,-0.60184 0.27731,-0.10941 0.58754,-0.16414 0.93052,-0.16414 z m 14.24104,0.27357 c 0.78083,0 1.35366,0.27007 1.71853,0.81007 0.37217,0.54 0.55814,1.40818 0.55814,2.60494 0,1.22596 -0.22615,2.14548 -0.67858,2.75846 -0.45244,0.6057 -1.14581,0.90846 -2.07988,0.90846 -0.33567,0 -0.62769,-0.0183 -0.8758,-0.0548 -0.24081,-0.0365 -0.46324,-0.0982 -0.66757,-0.18577 v -6.18449 c 0.32839,-0.21892 0.66057,-0.38336 0.99626,-0.49282 0.34298,-0.10942 0.68592,-0.16414 1.0289,-0.16414 z m -55.26157,8.92295 c 2.99489,0 4.94379,0.002 6.96313,0.005 0.63898,0.25013 1.30352,0.4778 2.01821,0.66062 0.94867,0.24082 2.04712,0.36094 3.29497,0.36094 1.65132,0 3.0401,-0.28758 4.17036,-0.85947 0.41326,0.0599 0.54505,0.13961 0.65614,0.2507 0.40443,0.40443 0.4181,0.69683 0.4181,8.94255 0,7.37696 -0.0438,8.58705 -0.32541,8.98911 l -0.32541,0.46464 h -16.90928 -16.90928 l -0.32542,-0.46464 c -0.28155,-0.40205 -0.3254,-1.61135 -0.3254,-8.98094 0,-8.49169 10e-4,-8.51755 0.45729,-8.94256 0.45249,-0.42152 0.64028,-0.42626 17.142,-0.42626 z m 43.30495,1.16161 v 3.16718 h 4.00582 v -3.16718 z m -23.86218,0.77741 v 17.27388 h 4.04909 v -5.64962 h 2.12193 c 0.57744,0 1.09736,-0.0505 1.5593,-0.15108 0.46915,-0.10058 0.90222,-0.23939 1.2992,-0.41728 0.39698,-0.17787 0.75759,-0.39479 1.0824,-0.65002 0.33202,-0.25521 0.63541,-0.53334 0.90968,-0.83496 0.44751,-0.48723 0.79032,-1.09442 1.02851,-1.82142 0.23819,-0.72698 0.35726,-1.49275 0.35726,-2.29708 0,-0.99769 -0.1661,-1.85629 -0.49812,-2.57555 -0.33202,-0.727 -0.8011,-1.30666 -1.40741,-1.73975 -0.54855,-0.39445 -1.16213,-0.68078 -1.8406,-0.85867 -0.67127,-0.1856 -1.47256,-0.27845 -2.40365,-0.27845 z m -31.30629,1.43435 c -2.05831,0.005 -2.98521,0.0662 -3.14308,0.19721 -0.29804,0.24735 -0.40387,1.75184 -0.16659,2.37018 0.11133,0.28995 0.8071,0.33071 5.65411,0.33071 h 5.52674 l -0.0617,-1.41108 -0.0617,-1.41107 -5.29889,-0.0612 c -0.95091,-0.0107 -1.76288,-0.0161 -2.44898,-0.0147 z m -2.60005,0.80762 h 4.91266 4.91264 v 0.62714 0.62715 h -4.91264 -4.91266 v -0.62715 z m 18.17256,0.20863 0.06,2.14276 0.0592,2.14275 1.89123,0.06 c 1.04036,0.0327 1.95757,-0.007 2.03823,-0.0873 0.0807,-0.0807 0.14699,-1.07177 0.14699,-2.20237 v -2.05538 l -2.09784,-4e-4 z m 5.97259,0.10453 v 2.09048 2.0905 l 2.0419,0.06 c 1.57494,0.0462 2.06682,-0.005 2.15133,-0.22539 0.0602,-0.157 0.0821,-1.12481 0.0486,-2.1505 l -0.0608,-1.86469 -2.09049,-4.2e-4 z m 13.81028,0.67001 h 0.57367 c 0.59908,0 1.07196,0.0152 1.41843,0.0462 0.35367,0.0231 0.72189,0.12386 1.10444,0.30173 0.30315,0.13148 0.5629,0.37509 0.77944,0.73086 0.21654,0.34803 0.3246,0.76583 0.3246,1.25306 0,0.52591 -0.0505,0.9433 -0.15148,1.25267 -0.0938,0.30935 -0.27773,0.60719 -0.55202,0.89335 -0.12992,0.13921 -0.31763,0.26697 -0.56304,0.38299 -0.23819,0.10822 -0.46574,0.18181 -0.68227,0.22048 -0.25262,0.0464 -0.5484,0.0735 -0.88764,0.0813 -0.33923,0.007 -0.70027,0.0119 -1.0828,0.0119 h -0.28133 z m 53.36543,0.61491 c -2.04987,0 -3.64524,0.6339 -4.78566,1.90225 -1.14043,1.26837 -1.71036,2.96629 -1.71036,5.09312 0,2.17325 0.60976,3.84732 1.82959,5.02288 1.22704,1.17558 2.9881,1.76345 5.28338,1.76345 0.62795,0 1.15847,-0.035 1.59155,-0.10452 0.44029,-0.0619 0.86615,-0.15061 1.27756,-0.26662 0.4475,-0.11598 0.79752,-0.22816 1.05015,-0.33644 0.25983,-0.11598 0.54501,-0.23967 0.85538,-0.37114 v -3.35294 h -0.40054 c -0.16601,0.13146 -0.38254,0.28265 -0.64961,0.4528 -0.25984,0.17014 -0.54502,0.32872 -0.85538,0.47566 -0.35367,0.17015 -0.74311,0.30901 -1.16895,0.41727 -0.42586,0.10059 -0.85934,0.15109 -1.29962,0.15109 -0.51247,0 -0.98495,-0.0505 -1.41803,-0.15109 -0.43306,-0.10822 -0.81231,-0.28204 -1.1371,-0.52179 -0.33203,-0.23976 -0.59899,-0.5606 -0.80109,-0.96278 -0.2021,-0.40989 -0.32117,-0.91684 -0.35726,-1.52009 h 8.30438 v -1.4617 c 0,-2.0031 -0.46949,-3.54203 -1.40781,-4.61704 -0.93832,-1.07502 -2.33837,-1.61237 -4.20058,-1.61237 z m -19.35824,0.0462 c -0.6857,0 -1.30307,0.15858 -1.85164,0.47568 -0.54855,0.31709 -1.13331,0.7579 -1.75405,1.32247 v -1.43843 h -3.78901 v 13.02799 h 3.78901 v -9.23449 c 0.2815,-0.20881 0.57048,-0.3904 0.86641,-0.54507 0.29594,-0.15468 0.59891,-0.23192 0.90928,-0.23192 0.40421,0 0.71819,0.0657 0.94196,0.19721 0.23097,0.12375 0.40087,0.32464 0.50913,0.60305 0.10823,0.27843 0.17311,0.642 0.19477,1.09057 0.0289,0.44085 0.0433,0.97819 0.0433,1.61237 v 6.50828 h 3.81105 v -9.23449 c 0.33203,-0.24748 0.63882,-0.43687 0.92031,-0.56835 0.28151,-0.1392 0.56667,-0.20864 0.85538,-0.20864 0.41143,0 0.72882,0.0657 0.95256,0.19721 0.23098,0.12375 0.40048,0.32464 0.50875,0.60305 0.10822,0.27843 0.17351,0.6379 0.19516,1.07873 0.0216,0.44084 0.0322,0.9823 0.0322,1.62421 v 6.50828 h 3.81106 v -8.4804 c 0,-0.92807 -0.0865,-1.67822 -0.25968,-2.25053 -0.16602,-0.58005 -0.41857,-1.07879 -0.7578,-1.49642 -0.31037,-0.3867 -0.68961,-0.67674 -1.13712,-0.87008 -0.44751,-0.19335 -0.95261,-0.29031 -1.5156,-0.29031 -0.66404,0 -1.32084,0.1972 -1.97045,0.59162 -0.6424,0.38671 -1.328,0.94377 -2.05701,1.67076 -0.29593,-0.75019 -0.72559,-1.31465 -1.28859,-1.69362 -0.56299,-0.37896 -1.21598,-0.56876 -1.95942,-0.56876 z m -16.3593,0.31358 c -0.32481,0 -0.67142,0.0657 -1.03952,0.19721 -0.36089,0.12375 -0.6787,0.27451 -0.95298,0.45239 -0.25262,0.15468 -0.53399,0.36339 -0.84436,0.62634 -0.30315,0.25522 -0.54128,0.46801 -0.71451,0.63817 v -1.86797 h -3.78942 v 13.02799 h 3.78942 v -8.72411 c 0.41141,-0.17014 0.83346,-0.31681 1.26653,-0.44056 0.4403,-0.12374 0.85894,-0.18577 1.25593,-0.18577 0.33202,0 0.63542,0.0156 0.90969,0.0465 0.27428,0.0231 0.48361,0.0618 0.62796,0.11598 h 0.31398 v -3.84004 c -0.1227,-0.0155 -0.25999,-0.027 -0.41155,-0.0347 -0.15159,-0.007 -0.28846,-0.0119 -0.41117,-0.0119 z m 2.27342,0.0462 v 13.02799 h 3.78941 v -13.02799 z m 33.15178,2.2044 c 0.72179,0 1.25571,0.22432 1.60216,0.67287 0.35369,0.44857 0.5414,1.10177 0.56306,1.96025 h -4.57948 c 0.0433,-0.81207 0.27044,-1.45377 0.68186,-1.92554 0.41863,-0.47176 0.99619,-0.70758 1.7324,-0.70758 z m -62.59787,1.83938 -2.14275,0.0597 -2.14275,0.0597 v 1.98596 1.98596 l 2.14275,0.0597 2.14275,0.0592 v -2.10478 z m -10.24339,0.0147 v 2.09049 2.09049 h 2.09048 2.09049 v -2.09049 -2.09049 h -2.09049 z m 27.92924,12.11748 c -1.65852,0 -2.99364,1.33513 -2.99364,2.99366 v 6.33188 c 0,1.65853 1.33512,2.99405 2.99364,2.99405 h 47.53983 c 1.65853,0 2.99366,-1.33552 2.99366,-2.99405 v -6.33188 c 0,-1.65853 -1.33513,-2.99366 -2.99366,-2.99366 z m -31.69212,0.52998 c 16.75835,0 20.28983,0.0492 20.86242,0.2907 1.16373,0.49092 1.29675,1.0192 1.29675,5.15477 v 3.68979 l -0.71412,0.71371 -0.7137,0.7137 -20.83547,-0.0551 -20.83548,-0.0551 -0.60958,-0.68268 -0.61001,-0.68308 v -3.6653 c 0,-4.10934 0.13388,-4.6403 1.29635,-5.13068 0.57259,-0.24157 4.1045,-0.29071 20.86284,-0.29071 z m 60.01906,2.45102 c 0.1354,0 0.2683,0.008 0.3985,0.0236 0.13019,0.013 0.24847,0.0288 0.35522,0.047 v 0.67166 h -0.0391 c -0.0652,-0.0235 -0.15855,-0.0452 -0.28092,-0.0661 -0.12238,-0.0235 -0.23193,-0.0356 -0.32827,-0.0356 -0.30984,0 -0.53109,0.0705 -0.66388,0.2111 -0.13019,0.138 -0.19518,0.38917 -0.19518,0.75371 v 0.14822 h 1.21469 v 0.60959 h -1.19141 v 3.75348 h -0.73453 v -3.75348 h -0.49568 v -0.60959 h 0.49568 v -0.14413 c 0,-0.52597 0.12674,-0.92579 0.37931,-1.19918 0.25257,-0.2734 0.61438,-0.41033 1.08566,-0.41033 z m 12.17424,0.0391 h 0.73411 v 6.07752 h -0.73411 z m -17.07995,0.14086 c 0.39578,0 0.75249,0.0686 1.07015,0.2066 0.31767,0.13799 0.58604,0.33267 0.80476,0.58263 0.22133,0.25517 0.3933,0.57094 0.51568,0.9485 0.12238,0.37753 0.18374,0.80876 0.18374,1.29306 0,0.4713 -0.0599,0.89702 -0.17965,1.27717 -0.11978,0.38016 -0.29324,0.69928 -0.51977,0.95704 -0.23694,0.27081 -0.51403,0.47082 -0.8317,0.60102 -0.31506,0.12759 -0.66305,0.1919 -1.04321,0.1919 -0.39318,0 -0.74691,-0.0669 -1.06198,-0.19966 -0.31505,-0.13279 -0.58639,-0.33027 -0.81293,-0.59326 -0.22392,-0.25776 -0.39549,-0.5754 -0.51526,-0.95296 -0.11978,-0.37755 -0.17925,-0.80474 -0.17925,-1.28125 0,-0.48951 0.0594,-0.91925 0.17925,-1.28898 0.12237,-0.36975 0.29541,-0.68699 0.51935,-0.95258 0.22393,-0.25778 0.49379,-0.45351 0.80884,-0.58631 0.31766,-0.13539 0.67142,-0.20292 1.06198,-0.20292 z m 10.17847,0.0155 c 0.32549,0 0.63292,0.0326 0.92195,0.0976 0.29161,0.0652 0.56066,0.15747 0.80802,0.27724 v 0.92602 h -0.0584 c -0.18487,-0.16924 -0.42183,-0.3168 -0.71085,-0.44178 -0.28902,-0.12758 -0.59245,-0.19108 -0.91009,-0.19108 -0.35933,0 -0.64959,0.0847 -0.87091,0.25396 -0.22132,0.16663 -0.33194,0.38641 -0.33194,0.6598 0,0.24738 0.0649,0.44377 0.19516,0.58959 0.1302,0.14582 0.31896,0.25282 0.56631,0.32052 0.16405,0.0443 0.36489,0.095 0.60183,0.15229 0.23694,0.0547 0.43336,0.10584 0.58959,0.15271 0.40097,0.12237 0.6938,0.30669 0.87866,0.55406 0.18487,0.24735 0.27764,0.55226 0.27764,0.91418 0,0.22654 -0.0471,0.45032 -0.14087,0.67164 -0.0912,0.22133 -0.21961,0.40901 -0.38624,0.56264 -0.18747,0.16925 -0.40001,0.29921 -0.63696,0.39033 -0.23433,0.0912 -0.52862,0.13679 -0.88273,0.13679 -0.42183,0 -0.78107,-0.0431 -1.07791,-0.12902 -0.29422,-0.0885 -0.57133,-0.19619 -0.83171,-0.32378 v -0.9689 h 0.0548 c 0.25517,0.23954 0.54394,0.42577 0.86682,0.55856 0.32287,0.13019 0.63392,0.19516 0.93337,0.19516 0.42702,0 0.75017,-0.0883 0.96888,-0.26539 0.21872,-0.17967 0.32786,-0.41515 0.32786,-0.70677 0,-0.23174 -0.0573,-0.4209 -0.17188,-0.56671 -0.11455,-0.14581 -0.29675,-0.25348 -0.54671,-0.32379 -0.17966,-0.052 -0.34359,-0.0952 -0.492,-0.12903 -0.14841,-0.0338 -0.33464,-0.0795 -0.55856,-0.13677 -0.2005,-0.052 -0.38012,-0.11849 -0.53895,-0.19925 -0.15884,-0.0808 -0.2998,-0.18583 -0.42219,-0.31602 -0.11977,-0.12759 -0.2132,-0.27769 -0.28089,-0.44955 -0.0651,-0.17445 -0.0976,-0.37488 -0.0976,-0.60142 0,-0.47128 0.18326,-0.86558 0.55039,-1.18324 0.36714,-0.32027 0.83594,-0.48057 1.40617,-0.48057 z m -23.97324,0.0661 h 0.83579 v 0.76188 h -0.83579 z m -8.47547,0.0391 h 1.46091 c 0.34369,0 0.6365,0.0284 0.87865,0.0858 0.24215,0.0573 0.45575,0.15006 0.64063,0.27764 0.2161,0.14841 0.38512,0.33718 0.5075,0.56631 0.12239,0.22654 0.18374,0.50108 0.18374,0.82394 0,0.25257 -0.0457,0.49249 -0.13678,0.71903 -0.0885,0.22393 -0.21191,0.41523 -0.37073,0.57407 -0.2005,0.19788 -0.43638,0.34757 -0.70719,0.44913 -0.27078,0.10154 -0.61326,0.15229 -1.02727,0.15229 h -0.65613 v 2.16765 h -0.77333 z m 14.84574,0.19925 h 0.73413 v 1.25389 h 1.35146 v 0.60918 h -1.35146 v 2.07415 c 0,0.22132 0.004,0.39142 0.0119,0.51119 0.008,0.11978 0.0377,0.23189 0.0899,0.33604 0.0443,0.0912 0.11586,0.16054 0.21477,0.2074 0.0989,0.0443 0.23293,0.0661 0.40217,0.0661 0.11977,0 0.2359,-0.0168 0.34786,-0.0506 0.11193,-0.0364 0.19267,-0.0665 0.24213,-0.0898 h 0.0425 v 0.65981 c -0.13801,0.039 -0.27817,0.0691 -0.42136,0.0898 -0.14061,0.0235 -0.27097,0.0356 -0.39076,0.0356 -0.40097,0 -0.71351,-0.11359 -0.93744,-0.34011 -0.22393,-0.22913 -0.33563,-0.58987 -0.33563,-1.08199 v -2.41758 h -0.49611 v -0.6096 h 0.49607 z m 7.42858,0.34787 c -0.28122,0 -0.52729,0.0492 -0.7382,0.14821 -0.20831,0.0963 -0.39303,0.24751 -0.55446,0.45321 -0.15363,0.1979 -0.27191,0.44653 -0.35522,0.74597 -0.0807,0.29944 -0.12127,0.63788 -0.12127,1.01543 0,0.76292 0.1599,1.34745 0.48016,1.75364 0.32026,0.40359 0.75,0.6051 1.28899,0.6051 0.53899,0 0.96724,-0.20151 1.28492,-0.6051 0.32027,-0.40619 0.48017,-0.99072 0.48017,-1.75364 0,-0.38535 -0.0412,-0.72678 -0.12454,-1.02361 -0.0833,-0.29683 -0.20051,-0.54249 -0.35155,-0.73779 -0.15361,-0.20048 -0.33983,-0.35059 -0.55854,-0.44953 -0.21612,-0.10154 -0.45967,-0.15189 -0.73046,-0.15189 z m -20.86038,0.11682 -0.64061,4.2e-4 v 2.32362 h 0.52711 c 0.31246,0 0.56553,-0.0244 0.75821,-0.0739 0.19268,-0.052 0.35258,-0.14337 0.48015,-0.27356 0.11455,-0.11718 0.1978,-0.24458 0.24989,-0.38258 0.052,-0.138 0.078,-0.29979 0.078,-0.48465 0,-0.20049 -0.0351,-0.37463 -0.10537,-0.52304 -0.0676,-0.14843 -0.17174,-0.26965 -0.31233,-0.36338 -0.12238,-0.0808 -0.26549,-0.13805 -0.42954,-0.17189 -0.16143,-0.0338 -0.36336,-0.0511 -0.60551,-0.0511 z m 4.3978,0.66838 c 0.58844,0 1.0594,0.20193 1.41352,0.60551 0.35411,0.401 0.5316,0.96685 0.5316,1.69852 0,0.73427 -0.17749,1.30203 -0.5316,1.70302 -0.35412,0.39838 -0.82508,0.59775 -1.41352,0.59775 -0.6067,0 -1.08424,-0.20595 -1.43314,-0.61735 -0.34631,-0.414 -0.51976,-0.97519 -0.51976,-1.68342 0,-0.72906 0.17857,-1.29492 0.53528,-1.69852 0.35933,-0.40358 0.83176,-0.60551 1.41762,-0.60551 z m 6.58503,0 c 0.42962,0 0.76553,0.14164 1.00768,0.42546 0.24215,0.2812 0.36298,0.68973 0.36298,1.22611 v 2.83196 h -0.73372 v -2.48408 c 0,-0.20049 -0.0107,-0.3863 -0.0315,-0.55816 -0.0183,-0.17445 -0.0548,-0.31394 -0.10942,-0.41809 -0.0599,-0.10942 -0.14312,-0.19004 -0.24988,-0.24213 -0.10679,-0.0547 -0.25283,-0.0821 -0.4377,-0.0821 -0.18226,0 -0.371,0.0492 -0.5663,0.14821 -0.19268,0.0963 -0.38145,0.22268 -0.56631,0.37891 v 3.25739 h -0.73412 v -4.36266 h 0.73412 v 0.48465 c 0.21871,-0.19528 0.43487,-0.34538 0.64838,-0.44954 0.2135,-0.10416 0.43878,-0.15597 0.67573,-0.15597 z m 30.48398,0 h 4e-4 c 0.2708,0 0.5099,0.0387 0.7182,0.11682 0.2083,0.0782 0.39048,0.20083 0.54671,0.36746 0.15622,0.16665 0.27639,0.37112 0.35971,0.61327 0.0833,0.23955 0.12454,0.53343 0.12454,0.88233 v 0.39851 h -3.02264 c 0,0.50774 0.12741,0.89545 0.38258,1.16364 0.25518,0.26819 0.60785,0.40258 1.0583,0.40258 0.16144,0 0.31919,-0.0183 0.47281,-0.0547 0.15623,-0.0364 0.29679,-0.0836 0.42177,-0.14086 0.13279,-0.0599 0.24449,-0.11717 0.33563,-0.17189 0.0912,-0.0573 0.16712,-0.11014 0.22701,-0.15965 h 0.0425 v 0.80068 c -0.0859,0.0338 -0.19253,0.0766 -0.32011,0.12862 -0.12759,0.0494 -0.24223,0.0885 -0.34379,0.11717 -0.14321,0.039 -0.27316,0.0691 -0.39033,0.0899 -0.11455,0.0209 -0.26063,0.031 -0.43769,0.031 -0.69521,0 -1.23517,-0.19492 -1.62055,-0.58549 -0.38275,-0.39317 -0.57446,-0.95031 -0.57446,-1.67158 0,-0.71082 0.1862,-1.27604 0.55854,-1.69525 0.37236,-0.42182 0.85941,-0.63246 1.4609,-0.63246 z m -75.7753,0.0107 c -0.13993,10e-4 -0.28597,0.0204 -0.43566,0.058 -1.02552,0.2574 -1.13688,1.89857 -0.16414,2.41917 0.78556,0.42041 1.58996,0.11026 1.91207,-0.73698 0.35394,-0.93094 -0.33279,-1.75067 -1.31227,-1.73976 z m 69.41319,0.005 c 0.29943,0 0.55169,0.0234 0.7574,0.0703 0.20568,0.0469 0.39082,0.13117 0.55487,0.25354 0.15883,0.11978 0.2771,0.27499 0.35522,0.46506 0.0782,0.19009 0.11717,0.42193 0.11717,0.69534 v 2.98384 h -0.73004 v -0.46505 c -0.0599,0.0443 -0.14098,0.10715 -0.24253,0.18781 -0.0989,0.0782 -0.19493,0.14054 -0.28867,0.18741 -0.13018,0.0678 -0.25651,0.11951 -0.3789,0.15598 -0.11976,0.0364 -0.2892,0.0551 -0.50792,0.0551 -0.17966,0 -0.35017,-0.0344 -0.5116,-0.10202 -0.16143,-0.0676 -0.30347,-0.1622 -0.42585,-0.28458 -0.11717,-0.11979 -0.2106,-0.26692 -0.28091,-0.44138 -0.0703,-0.17705 -0.10572,-0.36325 -0.10572,-0.55855 0,-0.30203 0.0638,-0.55833 0.1915,-0.76923 0.1276,-0.21352 0.32908,-0.38294 0.6051,-0.50792 0.24475,-0.11192 0.53393,-0.18903 0.86722,-0.2307 0.33329,-0.0443 0.69296,-0.0764 1.07831,-0.0971 v -0.14126 c 0,-0.17186 -0.0263,-0.30945 -0.0784,-0.41361 -0.052,-0.10679 -0.1251,-0.18892 -0.21884,-0.24621 -0.0938,-0.0599 -0.20841,-0.0989 -0.34379,-0.11717 -0.13541,-0.0209 -0.27448,-0.031 -0.4177,-0.031 -0.16925,0 -0.36861,0.0259 -0.59774,0.078 -0.22914,0.0494 -0.45844,0.1225 -0.68757,0.21885 h -0.0428 v -0.74596 c 0.1354,-0.039 0.32968,-0.0821 0.58223,-0.12903 0.25257,-0.0469 0.50268,-0.0703 0.75005,-0.0703 z m -27.99254,0.10537 h 0.73452 v 4.36266 h -0.73452 z m 34.31178,0.48424 c -0.19529,0 -0.36217,0.0299 -0.50017,0.0898 -0.1354,0.0573 -0.25878,0.14159 -0.37074,0.25355 -0.10942,0.11455 -0.1926,0.24238 -0.24987,0.38299 -0.0573,0.13799 -0.0938,0.29935 -0.10942,0.48423 h 2.30811 c -0.005,-0.1979 -0.0285,-0.36838 -0.0703,-0.5116 -0.0416,-0.14321 -0.10154,-0.26403 -0.17966,-0.36297 -0.0859,-0.10942 -0.19655,-0.1926 -0.33194,-0.24988 -0.13279,-0.0573 -0.2982,-0.0861 -0.49608,-0.0861 z m -37.02614,0.0273 c -0.38276,0 -0.67811,0.13802 -0.88642,0.41402 -0.20571,0.27339 -0.30868,0.69252 -0.30868,1.25755 0,0.5468 0.10298,0.96232 0.30868,1.24614 0.2083,0.2812 0.50366,0.42176 0.88642,0.42176 0.37754,0 0.66927,-0.138 0.87497,-0.41401 0.2083,-0.2786 0.31235,-0.69667 0.31235,-1.25389 0,-0.56503 -0.10297,-0.98416 -0.30867,-1.25755 -0.2057,-0.276 -0.49849,-0.41402 -0.87865,-0.41402 z m 31.76153,1.56623 c -0.17445,0.0156 -0.3957,0.0376 -0.6639,0.0661 -0.26558,0.0261 -0.48066,0.0641 -0.64469,0.11348 -0.19529,0.0599 -0.35666,0.15224 -0.48425,0.27723 -0.12758,0.12238 -0.19149,0.29434 -0.19149,0.51567 0,0.24997 0.07,0.43873 0.21069,0.56631 0.1406,0.12759 0.34614,0.19109 0.61693,0.19109 0.23174,0 0.44171,-0.0492 0.62919,-0.14822 0.18747,-0.10154 0.36349,-0.22533 0.52752,-0.37113 z" /></g></svg>
