<?xml version="1.0" encoding="UTF-8" standalone="no"?>
<!-- Created with Inkscape (http://www.inkscape.org/) -->

<svg
   width="143.67375mm"
   height="143.67375mm"
   viewBox="0 0 143.67375 143.67375"
   version="1.1"
   id="svg1"
   xml:space="preserve"
   inkscape:version="1.3 (0e150ed6c4, 2023-07-21)"
   sodipodi:docname="logo3.svg"
   xmlns:inkscape="http://www.inkscape.org/namespaces/inkscape"
   xmlns:sodipodi="http://sodipodi.sourceforge.net/DTD/sodipodi-0.dtd"
   xmlns="http://www.w3.org/2000/svg"
   xmlns:svg="http://www.w3.org/2000/svg"><sodipodi:namedview
     id="namedview1"
     pagecolor="#ffffff"
     bordercolor="#000000"
     borderopacity="0.25"
     inkscape:showpageshadow="2"
     inkscape:pageopacity="0.0"
     inkscape:pagecheckerboard="0"
     inkscape:deskcolor="#d1d1d1"
     inkscape:document-units="mm"
     inkscape:zoom="0.71268238"
     inkscape:cx="396.38976"
     inkscape:cy="785.76378"
     inkscape:window-width="2560"
     inkscape:window-height="1009"
     inkscape:window-x="-8"
     inkscape:window-y="-8"
     inkscape:window-maximized="1"
     inkscape:current-layer="layer1"
     inkscape:export-bgcolor="#353535ff" /><defs
     id="defs1" /><g
     inkscape:label="Layer 1"
     inkscape:groupmode="layer"
     id="layer1"
     transform="translate(-112.64141,-457.31107)"><circle
       style="fill:#ffffff;fill-opacity:1;stroke-width:0.264583"
       id="path1"
       cx="184.47829"
       cy="529.14795"
       r="71.836876"
       inkscape:export-filename="..\GitHub\ShopperPrime-develop\shopperprime\public\js\shopperprimeapp\components\pos\pos.png"
       inkscape:export-xdpi="96"
       inkscape:export-ydpi="96" /><g
       id="g2"
       transform="matrix(1.1932203,0,0,1.1932203,-204.86447,-36.237621)"><rect
         style="fill:#0097a7;fill-opacity:0.168627;stroke-width:0.264583"
         id="rect37-7"
         width="109.51875"
         height="109.51875"
         x="271.53641"
         y="419.0723"
         ry="54.759377"
         inkscape:export-filename="..\GitHub\ShopperPrime\shopperprime\public\js\shopperprimeapp\components\pos\logo.svg"
         inkscape:export-xdpi="96"
         inkscape:export-ydpi="96" /><path
         id="rect15-5-8"
         style="fill:#0097a7;fill-opacity:1;stroke-width:0.175197"
         d="m 318.25534,452.46388 v 14.27413 h 3.21104 v -7.30217 c 0.30579,-0.21405 0.59321,-0.37025 0.8623,-0.46811 0.26909,-0.0978 0.53499,-0.14679 0.79797,-0.14679 0.34859,0 0.62699,0.0521 0.83492,0.15603 0.20794,0.0979 0.36692,0.26308 0.477,0.49548 0.0917,0.19571 0.15283,0.50153 0.18341,0.91739 0.0367,0.40975 0.0551,0.82249 0.0551,1.23836 v 5.10981 h 3.22916 v -6.70609 c 0,-1.25984 -0.27839,-2.21999 -0.83492,-2.88048 -0.55652,-0.66662 -1.36082,-0.99986 -2.41273,-0.99986 -0.60545,0 -1.15877,0.12531 -1.66026,0.37606 -0.49537,0.25074 -1.006,0.59926 -1.53195,1.04571 v -5.10947 z m -6.6965,0.36682 c -1.62066,0 -2.97238,0.39746 -4.05485,1.19251 -1.08249,0.78892 -1.62366,1.82267 -1.62366,3.10085 0,0.94793 0.22945,1.73661 0.68813,2.36653 0.45868,0.62992 1.21681,1.13152 2.27482,1.50457 0.45868,0.15901 0.95125,0.2937 1.4772,0.40378 0.53207,0.11008 1.03055,0.22603 1.49534,0.34834 0.37306,0.0978 0.69381,0.25405 0.9629,0.4681 0.26909,0.21405 0.40378,0.49211 0.40378,0.83459 0,0.30578 -0.0826,0.55363 -0.24775,0.74321 -0.16512,0.18348 -0.3668,0.32719 -0.60531,0.43116 -0.1957,0.0917 -0.4557,0.15907 -0.77984,0.20188 -0.31801,0.0428 -0.57489,0.064 -0.77059,0.064 -0.7767,0 -1.57787,-0.15586 -2.40348,-0.46777 -0.82563,-0.31189 -1.58098,-0.7583 -2.26594,-1.33929 h -0.31172 v 2.39425 l -7.502,0.01 -3.5e-4,-1.10183 -3.3e-4,-1.10183 1.96343,-0.0496 c 3.08019,-0.0779 3.3358,-0.37951 3.33183,-3.92757 -0.003,-2.59219 -0.11293,-2.97468 -1.03339,-3.59496 -0.58984,-0.397 -0.62356,-0.39925 -6.91755,-0.39898 -7.09454,3e-4 -7.25826,0.0258 -7.85787,1.22603 -0.39264,0.78598 -0.43933,4.42807 -0.0681,5.3052 0.46747,1.10446 0.80952,1.25555 3.06389,1.3523 l 2.04078,0.0876 0.0524,1.09499 0.052,1.09498 h -3.10633 c -2.77151,0 -3.18638,0.0386 -3.8468,0.35827 -1.28533,0.62203 -1.29937,0.71634 -1.28798,8.62401 0.007,4.84551 0.0716,7.05206 0.219,7.4801 0.32214,0.93529 1.16532,1.40773 2.51264,1.40773 h 1.11312 v 0.68882 0.68915 l -2.86064,0.0551 c -2.71586,0.0528 -2.89335,0.0779 -3.50668,0.49377 -1.16363,0.78894 -1.34136,1.43379 -1.34136,4.86172 0,1.69929 0.081,3.21323 0.18684,3.49266 0.2657,0.70125 0.84213,1.27683 1.65273,1.65102 0.66611,0.30734 1.54713,0.32337 17.78218,0.32337 16.23718,0 17.11638,-0.0159 17.78251,-0.32337 0.81073,-0.37419 1.38701,-0.94969 1.65274,-1.65102 0.10587,-0.27943 0.18683,-1.79337 0.18683,-3.49266 0,-3.42793 -0.17772,-4.07278 -1.34135,-4.86172 -0.61333,-0.41583 -0.79082,-0.441 -3.50668,-0.49377 l -2.86064,-0.0551 v -0.68915 -0.68882 h 1.11311 c 1.34733,0 2.19051,-0.47244 2.51264,-1.40773 0.14781,-0.42913 0.21092,-2.63592 0.2149,-7.52733 0.006,-6.3793 -0.0193,-6.97634 -0.3196,-7.6375 -0.16414,-0.36145 -0.29168,-0.62044 -0.57589,-0.80925 0.92193,-0.80178 1.38891,-1.8298 1.38891,-3.08991 0,-0.94793 -0.23223,-1.70919 -0.69702,-2.28407 -0.45868,-0.58098 -1.16196,-1.04266 -2.10989,-1.38515 -0.48315,-0.17124 -0.93892,-0.30592 -1.36703,-0.40377 -0.42198,-0.0979 -0.86214,-0.19887 -1.32082,-0.30283 -0.70942,-0.16513 -1.18949,-0.34841 -1.44024,-0.55023 -0.24463,-0.20794 -0.36716,-0.48633 -0.36716,-0.83493 0,-0.23851 0.0764,-0.45234 0.22926,-0.64193 0.15901,-0.1957 0.34576,-0.34254 0.55981,-0.44038 0.26298,-0.12232 0.5136,-0.20494 0.75212,-0.24775 0.23851,-0.0428 0.50754,-0.0643 0.8072,-0.0643 0.77058,0 1.51969,0.14995 2.24746,0.44962 0.73388,0.29967 1.35489,0.66658 1.86249,1.1008 h 0.30249 v -3.11899 c -0.63604,-0.28133 -1.35771,-0.50453 -2.16498,-0.66965 -0.80117,-0.16512 -1.60824,-0.24774 -2.42163,-0.24774 z m -15.9645,3.13268 c 6.07886,0 6.38172,0.0154 6.67529,0.33978 0.26319,0.29086 0.30437,0.67573 0.28709,2.67176 -0.0185,2.13968 -0.0505,2.35725 -0.38735,2.63856 -0.33456,0.27939 -0.92055,0.3066 -6.59966,0.3066 -7.69676,0 -7.04348,0.27876 -7.04348,-3.00915 0,-2.01342 0.0364,-2.28319 0.3504,-2.59716 0.33754,-0.33755 0.58379,-0.35039 6.71771,-0.35039 z m 39.25615,0.15159 c -1.68182,0 -2.99049,0.48598 -3.9262,1.45838 -0.92959,0.96628 -1.39439,2.30584 -1.39439,4.01824 0,1.69405 0.4648,3.03015 1.39439,4.00866 0.93571,0.97239 2.24438,1.45872 3.9262,1.45872 1.69405,0 3.00272,-0.48633 3.92619,-1.45872 0.92959,-0.97851 1.3944,-2.31461 1.3944,-4.00866 0,-1.70017 -0.46481,-3.03661 -1.3944,-4.00901 -0.92958,-0.97851 -2.23826,-1.46761 -3.92619,-1.46761 z m 23.60371,0 c -1.73686,0 -3.08857,0.50125 -4.05486,1.50422 -0.96628,1.00298 -1.44948,2.34567 -1.44948,4.02749 0,1.71851 0.51687,3.04246 1.55043,3.97205 1.03967,0.92959 2.53197,1.39439 4.47677,1.39439 0.53207,0 0.9816,-0.0274 1.34854,-0.0825 0.37305,-0.0489 0.73372,-0.11939 1.08232,-0.21112 0.37917,-0.0917 0.67597,-0.1806 0.89001,-0.26622 0.22017,-0.0917 0.46177,-0.18929 0.72474,-0.29325 v -2.65123 h -0.33944 c -0.14066,0.10397 -0.32429,0.22304 -0.55057,0.35758 -0.22017,0.13455 -0.46176,0.26021 -0.72474,0.3764 -0.29967,0.13455 -0.62979,0.24459 -0.99062,0.33021 -0.36082,0.0795 -0.72774,0.11908 -1.1008,0.11908 -0.43422,0 -0.8348,-0.0396 -1.20174,-0.11908 -0.36695,-0.0856 -0.68804,-0.22343 -0.96324,-0.41302 -0.28132,-0.18958 -0.50765,-0.44334 -0.67889,-0.76135 -0.17124,-0.32413 -0.27226,-0.72472 -0.30284,-1.20174 h 7.0363 v -1.15589 c 0,-1.58397 -0.39747,-2.801 -1.19251,-3.65109 -0.79504,-0.85008 -1.98152,-1.27496 -3.55938,-1.27496 z m -10.2285,0.0366 c -0.64215,0 -1.20797,0.12531 -1.69723,0.37606 -0.48925,0.25074 -0.96933,0.57808 -1.44024,0.98171 v -1.07342 h -3.21069 v 14.08149 h 3.21069 v -4.29336 c 0.4281,0.24462 0.83181,0.42513 1.21098,0.54133 0.37918,0.1162 0.82558,0.17417 1.3393,0.17417 1.22315,0 2.25064,-0.50438 3.08238,-1.51347 0.83785,-1.00909 1.25683,-2.33617 1.25683,-3.98129 0,-1.63289 -0.32734,-2.92351 -0.98171,-3.87144 -0.65439,-0.94794 -1.57775,-1.42177 -2.77031,-1.42177 z m 22.85125,0.24774 c -0.2752,0 -0.56887,0.0521 -0.88077,0.15603 -0.30579,0.0978 -0.57481,0.21692 -0.80721,0.35758 -0.21405,0.12232 -0.45253,0.28754 -0.7155,0.49548 -0.25686,0.20182 -0.45855,0.36983 -0.60532,0.50438 v -1.47686 h -3.21103 V 466.738 h 3.21103 v -6.89874 c 0.34859,-0.13454 0.70614,-0.25083 1.07308,-0.34868 0.37306,-0.0978 0.72782,-0.14679 1.06419,-0.14679 0.28132,0 0.5382,0.0125 0.77059,0.0369 0.2324,0.0183 0.40978,0.0489 0.53209,0.0917 h 0.26588 v -3.03652 c -0.10397,-0.0122 -0.21991,-0.0213 -0.34834,-0.0274 -0.12843,-0.006 -0.24472,-0.009 -0.34869,-0.009 z m -71.8637,0.95845 -3.63533,0.0472 -3.63534,0.0476 v 1.48918 1.48918 l 3.51489,0.0472 c 1.93326,0.026 3.56919,-0.007 3.63534,-0.0729 0.0661,-0.0662 0.12044,-0.77901 0.12044,-1.58396 z m 58.99321,0.82124 c 0.61157,0 1.06423,0.17738 1.35778,0.53209 0.29967,0.35471 0.45866,0.87124 0.477,1.55008 h -3.88068 c 0.0367,-0.64214 0.22935,-1.14965 0.57794,-1.52271 0.35471,-0.37305 0.84416,-0.55946 1.46796,-0.55946 z m -23.35597,0.23849 c 0.30579,0 0.57793,0.0521 0.81645,0.15604 0.23851,0.0978 0.45268,0.27489 0.64227,0.53175 0.17736,0.24463 0.31482,0.57197 0.41267,0.98172 0.10397,0.40364 0.15604,0.91114 0.15604,1.52271 0,0.65439 -0.0489,1.16813 -0.1468,1.54119 -0.0978,0.36694 -0.24156,0.68213 -0.43115,0.94511 -0.15901,0.22016 -0.37318,0.38505 -0.64227,0.49514 -0.26298,0.11007 -0.52298,0.16527 -0.77984,0.16527 -0.3119,0 -0.5962,-0.0552 -0.85305,-0.16527 -0.25686,-0.11009 -0.4707,-0.28435 -0.64194,-0.52286 -0.16512,-0.2324 -0.29981,-0.54134 -0.40378,-0.92663 -0.10396,-0.39141 -0.15603,-0.90203 -0.15603,-1.53195 0,-0.62991 0.0552,-1.15269 0.16528,-1.56856 0.11007,-0.41587 0.25691,-0.74321 0.44038,-0.98172 0.1957,-0.25074 0.40954,-0.41875 0.64193,-0.50438 0.2324,-0.0917 0.4924,-0.13756 0.77984,-0.13756 z m 11.93496,0.22927 c 0.65439,0 1.13446,0.22633 1.44025,0.67889 0.3119,0.45256 0.46776,1.18015 0.46776,2.18312 0,1.02744 -0.18953,1.79806 -0.5687,2.31178 -0.37918,0.50761 -0.96027,0.76135 -1.74308,0.76135 -0.28132,0 -0.52605,-0.0153 -0.73398,-0.0459 -0.20182,-0.0306 -0.38823,-0.0823 -0.55947,-0.15569 v -5.18303 c 0.27521,-0.18347 0.5536,-0.32128 0.83493,-0.41301 0.28744,-0.0917 0.57485,-0.13756 0.86229,-0.13756 z m -46.31296,7.47804 c 2.50992,0 4.14323,0.002 5.83557,0.004 0.53551,0.20963 1.09244,0.40043 1.6914,0.55365 0.79505,0.20182 1.71563,0.30249 2.76141,0.30249 1.38392,0 2.54781,-0.24101 3.49505,-0.72029 0.34634,0.0502 0.45679,0.117 0.54989,0.2101 0.33894,0.33894 0.35039,0.58399 0.35039,7.49447 0,6.18239 -0.0367,7.19653 -0.27271,7.53348 l -0.27272,0.3894 h -14.17113 -14.17113 l -0.27272,-0.3894 c -0.23596,-0.33694 -0.27271,-1.35042 -0.27271,-7.52664 0,-7.11661 9.2e-4,-7.13828 0.38324,-7.49447 0.37922,-0.35326 0.5366,-0.35724 14.36617,-0.35724 z m 36.2925,0.97351 v 2.65431 h 3.35715 v -2.65431 z m -19.99814,0.65152 v 14.47669 h 3.39342 v -4.73477 h 1.77832 c 0.48393,0 0.91966,-0.0423 1.3068,-0.12661 0.39318,-0.0843 0.75612,-0.20063 1.08882,-0.34971 0.33269,-0.14907 0.63491,-0.33086 0.90712,-0.54476 0.27826,-0.21389 0.53252,-0.44698 0.76238,-0.69976 0.37504,-0.40833 0.66234,-0.9172 0.86196,-1.52647 0.19962,-0.60926 0.29941,-1.25103 0.29941,-1.92511 0,-0.83613 -0.13921,-1.5557 -0.41746,-2.15849 -0.27826,-0.60927 -0.67138,-1.09507 -1.17951,-1.45803 -0.45972,-0.33057 -0.97394,-0.57054 -1.54255,-0.71962 -0.56257,-0.15555 -1.2341,-0.23336 -2.01442,-0.23336 z m -26.2368,1.20208 c -1.72501,0.004 -2.50181,0.0555 -2.63412,0.16528 -0.24978,0.20729 -0.33847,1.46816 -0.13961,1.98637 0.0933,0.243 0.6764,0.27716 4.73853,0.27716 h 4.63178 l -0.0517,-1.18258 -0.0517,-1.18258 -4.44083,-0.0513 c -0.79693,-0.009 -1.47741,-0.0135 -2.05241,-0.0123 z m -2.17902,0.67684 h 4.11714 4.11713 v 0.52559 0.52559 h -4.11713 -4.11714 v -0.52559 z m 15.22984,0.17485 0.0503,1.79578 0.0496,1.79577 1.58498,0.0503 c 0.87189,0.0274 1.64058,-0.006 1.70818,-0.0732 0.0676,-0.0676 0.12318,-0.89821 0.12318,-1.84573 v -1.72255 l -1.75813,-3.4e-4 z m 5.00544,0.0876 v 1.75197 1.75198 l 1.71125,0.0503 c 1.31991,0.0387 1.73214,-0.004 1.80296,-0.18889 0.0505,-0.13158 0.0688,-0.94267 0.0407,-1.80227 l -0.051,-1.56274 -1.75197,-3.5e-4 z m 11.57396,0.56152 h 0.48077 c 0.50207,0 0.89838,0.0127 1.18874,0.0387 0.2964,0.0194 0.605,0.1038 0.9256,0.25287 0.25406,0.11019 0.47175,0.31435 0.65322,0.61251 0.18148,0.29167 0.27204,0.64182 0.27204,1.05015 0,0.44075 -0.0423,0.79055 -0.12695,1.04982 -0.0786,0.25926 -0.23276,0.50887 -0.46263,0.74869 -0.10888,0.11667 -0.2662,0.22374 -0.47187,0.32097 -0.19962,0.0907 -0.39032,0.15237 -0.57179,0.18478 -0.21171,0.0389 -0.45959,0.0616 -0.7439,0.0681 -0.2843,0.006 -0.58687,0.01 -0.90746,0.01 h -0.23577 z m 44.72387,0.51533 c -1.71793,0 -3.05496,0.53125 -4.01071,1.59422 -0.95576,1.06298 -1.4334,2.48595 -1.4334,4.26838 0,1.82133 0.51102,3.22432 1.53332,4.20952 1.02834,0.98521 2.50423,1.47789 4.42783,1.47789 0.52627,0 0.97088,-0.0293 1.33383,-0.0876 0.36899,-0.0519 0.72589,-0.12622 1.07068,-0.22344 0.37504,-0.0972 0.66838,-0.19122 0.8801,-0.28196 0.21776,-0.0972 0.45676,-0.20086 0.71687,-0.31104 v -2.81 h -0.33568 c -0.13913,0.11018 -0.3206,0.23688 -0.54442,0.37948 -0.21776,0.14259 -0.45676,0.27549 -0.71687,0.39864 -0.2964,0.14259 -0.62277,0.25897 -0.97966,0.3497 -0.3569,0.0843 -0.72018,0.12662 -1.08917,0.12662 -0.42948,0 -0.82545,-0.0423 -1.1884,-0.12662 -0.36294,-0.0907 -0.68077,-0.23637 -0.95297,-0.4373 -0.27826,-0.20093 -0.50199,-0.46982 -0.67137,-0.80687 -0.16937,-0.34352 -0.26916,-0.76838 -0.29941,-1.27394 h 6.95964 v -1.22501 c 0,-1.67873 -0.39346,-2.96846 -1.17984,-3.86939 -0.78638,-0.90094 -1.95971,-1.35128 -3.52037,-1.35128 z m -16.22353,0.0387 c -0.57466,0 -1.09206,0.1329 -1.5518,0.39865 -0.45972,0.26574 -0.94979,0.63517 -1.47001,1.10832 v -1.2055 h -3.17545 v 10.91834 h 3.17545 v -7.73913 c 0.23591,-0.175 0.4781,-0.32718 0.72611,-0.45681 0.24802,-0.12963 0.50193,-0.19436 0.76204,-0.19436 0.33875,0 0.60189,0.0551 0.78942,0.16527 0.19357,0.10371 0.33596,0.27207 0.42669,0.5054 0.0907,0.23334 0.14508,0.53804 0.16323,0.91397 0.0242,0.36946 0.0363,0.81979 0.0363,1.35128 v 5.45438 h 3.19392 v -7.73913 c 0.27826,-0.20741 0.53537,-0.36613 0.77128,-0.47632 0.23592,-0.11666 0.47491,-0.17485 0.71687,-0.17485 0.3448,0 0.6108,0.0551 0.79831,0.16527 0.19357,0.10371 0.33563,0.27207 0.42636,0.5054 0.0907,0.23334 0.14542,0.5346 0.16356,0.90405 0.0181,0.36945 0.027,0.82323 0.027,1.3612 v 5.45438 h 3.19393 v -7.10715 c 0,-0.77779 -0.0725,-1.40647 -0.21763,-1.8861 -0.13913,-0.48612 -0.35079,-0.9041 -0.63509,-1.2541 -0.26011,-0.32408 -0.57794,-0.56716 -0.95298,-0.72919 -0.37504,-0.16204 -0.79835,-0.2433 -1.27018,-0.2433 -0.55651,0 -1.10695,0.16527 -1.65137,0.49582 -0.53837,0.32409 -1.11295,0.79094 -1.72391,1.40021 -0.24801,-0.62871 -0.6081,-1.10177 -1.07993,-1.41937 -0.47182,-0.31759 -1.01907,-0.47666 -1.64213,-0.47666 z m -13.71021,0.2628 c -0.27221,0 -0.56269,0.0551 -0.87119,0.16527 -0.30245,0.10371 -0.56879,0.23006 -0.79866,0.37914 -0.21171,0.12963 -0.44752,0.30454 -0.70763,0.52491 -0.25406,0.21389 -0.45363,0.39223 -0.59881,0.53483 v -1.56548 h -3.17579 v 10.91834 h 3.17579 v -7.3114 c 0.34479,-0.14259 0.6985,-0.26551 1.06144,-0.36922 0.369,-0.1037 0.71985,-0.15569 1.05256,-0.15569 0.27825,0 0.53252,0.0131 0.76238,0.039 0.22986,0.0194 0.4053,0.0518 0.52627,0.0972 h 0.26314 v -3.21822 c -0.10283,-0.013 -0.21789,-0.0226 -0.34491,-0.0291 -0.12704,-0.006 -0.24175,-0.01 -0.34459,-0.01 z m 1.90528,0.0387 v 10.91834 h 3.17579 v -10.91834 z m 27.78346,1.84744 c 0.60491,0 1.05237,0.18799 1.34272,0.56391 0.29641,0.37593 0.45373,0.92336 0.47188,1.64282 h -3.83792 c 0.0363,-0.68057 0.22665,-1.21836 0.57145,-1.61373 0.35084,-0.39537 0.83487,-0.593 1.45187,-0.593 z m -52.46129,1.54152 -1.79577,0.05 -1.79577,0.05 v 1.66437 1.66437 l 1.79577,0.05 1.79577,0.0496 v -1.76395 z m -8.58466,0.0123 v 1.75197 1.75197 h 1.75197 1.75197 v -1.75197 -1.75197 h -1.75197 z m 23.40661,10.15527 c -1.38995,0 -2.50887,1.11893 -2.50887,2.50889 v 5.30655 c 0,1.38996 1.11892,2.50922 2.50887,2.50922 h 39.84162 c 1.38996,0 2.50889,-1.11926 2.50889,-2.50922 v -5.30655 c 0,-1.38996 -1.11893,-2.50889 -2.50889,-2.50889 z m -26.56016,0.44416 c 14.04464,0 17.00426,0.0412 17.48413,0.24363 0.97529,0.41142 1.08677,0.85416 1.08677,4.32005 v 3.09229 l -0.59848,0.59814 -0.59813,0.59813 -17.46155,-0.0462 -17.46155,-0.0462 -0.51087,-0.57213 -0.51123,-0.57247 v -3.07177 c 0,-3.44391 0.1122,-3.88889 1.08643,-4.29986 0.47987,-0.20245 3.43985,-0.24363 17.48448,-0.24363 z m 50.30007,2.05412 c 0.11347,0 0.22485,0.007 0.33397,0.0198 0.10911,0.0109 0.20823,0.0241 0.2977,0.0394 v 0.56289 h -0.0328 c -0.0546,-0.0197 -0.13287,-0.0379 -0.23543,-0.0554 -0.10256,-0.0197 -0.19437,-0.0298 -0.27511,-0.0298 -0.25967,0 -0.44509,0.0591 -0.55638,0.17691 -0.1091,0.11566 -0.16357,0.32615 -0.16357,0.63166 v 0.12422 h 1.01799 v 0.51088 h -0.99848 v 3.14567 h -0.61559 v -3.14567 h -0.41541 v -0.51088 h 0.41541 v -0.12079 c 0,-0.4408 0.10622,-0.77587 0.31789,-1.00499 0.21167,-0.22913 0.51489,-0.34389 0.90986,-0.34389 z m 10.20284,0.0328 h 0.61524 v 5.09337 h -0.61524 z m -14.31416,0.11805 c 0.33169,0 0.63064,0.0575 0.89686,0.17314 0.26623,0.11565 0.49114,0.2788 0.67444,0.48829 0.18549,0.21385 0.32961,0.47848 0.43218,0.7949 0.10256,0.3164 0.15398,0.6778 0.15398,1.08368 0,0.39498 -0.0502,0.75176 -0.15056,1.07035 -0.10038,0.3186 -0.24575,0.58605 -0.4356,0.80207 -0.19857,0.22695 -0.43079,0.39458 -0.69702,0.50369 -0.26404,0.10693 -0.55568,0.16083 -0.87428,0.16083 -0.32951,0 -0.62596,-0.0561 -0.89001,-0.16733 -0.26404,-0.11129 -0.49144,-0.27679 -0.68129,-0.49719 -0.18766,-0.21602 -0.33145,-0.48223 -0.43183,-0.79865 -0.10038,-0.31641 -0.15022,-0.67443 -0.15022,-1.07377 0,-0.41025 0.0498,-0.7704 0.15022,-1.08026 0.10256,-0.30987 0.24758,-0.57574 0.43525,-0.79832 0.18767,-0.21604 0.41383,-0.38008 0.67787,-0.49137 0.26622,-0.11347 0.56269,-0.17006 0.89001,-0.17006 z m 8.53025,0.013 c 0.27278,0 0.53043,0.0273 0.77266,0.0818 0.24439,0.0546 0.46987,0.13197 0.67717,0.23235 v 0.77606 h -0.0489 c -0.15493,-0.14183 -0.35352,-0.2655 -0.59574,-0.37024 -0.24222,-0.10692 -0.49651,-0.16014 -0.76272,-0.16014 -0.30114,0 -0.5444,0.071 -0.72988,0.21284 -0.18548,0.13965 -0.27819,0.32384 -0.27819,0.55296 0,0.20732 0.0544,0.37191 0.16356,0.49411 0.10912,0.12221 0.26731,0.21188 0.47461,0.26862 0.13748,0.0371 0.3058,0.0796 0.50437,0.12763 0.19857,0.0458 0.36319,0.0887 0.49412,0.12798 0.33604,0.10256 0.58145,0.25703 0.73638,0.46434 0.15493,0.2073 0.23268,0.46283 0.23268,0.76615 0,0.18985 -0.0395,0.3774 -0.11806,0.56288 -0.0764,0.18549 -0.18405,0.34278 -0.3237,0.47153 -0.15711,0.14184 -0.33523,0.25076 -0.53381,0.32712 -0.19639,0.0764 -0.44302,0.11464 -0.73979,0.11464 -0.35352,0 -0.65459,-0.0361 -0.90336,-0.10813 -0.24658,-0.0742 -0.47882,-0.16442 -0.69703,-0.27135 v -0.812 h 0.0459 c 0.21385,0.20075 0.45586,0.35682 0.72645,0.46811 0.27059,0.10911 0.53127,0.16356 0.78223,0.16356 0.35787,0 0.62869,-0.074 0.81199,-0.22242 0.1833,-0.15057 0.27477,-0.34792 0.27477,-0.59232 0,-0.19421 -0.048,-0.35274 -0.14405,-0.47494 -0.096,-0.1222 -0.2487,-0.21243 -0.45818,-0.27136 -0.15057,-0.0436 -0.28795,-0.0798 -0.41233,-0.10813 -0.12438,-0.0283 -0.28045,-0.0666 -0.46811,-0.11463 -0.16803,-0.0436 -0.31857,-0.0993 -0.45168,-0.16698 -0.13312,-0.0677 -0.25125,-0.15574 -0.35382,-0.26485 -0.10038,-0.10693 -0.17868,-0.23272 -0.23541,-0.37675 -0.0546,-0.1462 -0.0818,-0.31418 -0.0818,-0.50403 0,-0.39497 0.15358,-0.72542 0.46126,-0.99164 0.30769,-0.26841 0.70058,-0.40275 1.17847,-0.40275 z m -20.09121,0.0554 h 0.70045 v 0.63851 h -0.70045 z m -7.10302,0.0328 h 1.22434 c 0.28804,0 0.53343,0.0238 0.73637,0.0719 0.20294,0.048 0.38195,0.12576 0.53689,0.23268 0.18111,0.12438 0.32276,0.28258 0.42532,0.47461 0.10257,0.18985 0.15399,0.41994 0.15399,0.69052 0,0.21167 -0.0383,0.41274 -0.11463,0.60259 -0.0742,0.18767 -0.1776,0.34799 -0.3107,0.48111 -0.16803,0.16584 -0.36572,0.29129 -0.59267,0.3764 -0.22694,0.0851 -0.51396,0.12763 -0.86093,0.12763 h -0.54988 v 1.81664 h -0.6481 z m 12.44174,0.16699 h 0.61525 v 1.05084 h 1.13262 v 0.51054 h -1.13262 v 1.73828 c 0,0.18548 0.003,0.32803 0.01,0.42841 0.007,0.10038 0.0316,0.19434 0.0753,0.28162 0.0371,0.0764 0.0971,0.13455 0.17999,0.17382 0.0829,0.0371 0.19521,0.0554 0.33705,0.0554 0.10037,0 0.1977,-0.0141 0.29153,-0.0424 0.0938,-0.0305 0.16147,-0.0557 0.20292,-0.0753 h 0.0356 v 0.55296 c -0.11566,0.0327 -0.23312,0.0579 -0.35313,0.0753 -0.11784,0.0197 -0.22709,0.0298 -0.32748,0.0298 -0.33604,0 -0.59797,-0.0952 -0.78564,-0.28504 -0.18767,-0.19203 -0.28128,-0.49435 -0.28128,-0.90678 v -2.02605 h -0.41574 v -0.51088 h 0.41574 z m 6.22566,0.29154 c -0.23568,0 -0.44191,0.0412 -0.61866,0.12421 -0.17458,0.0807 -0.32939,0.20743 -0.46468,0.37982 -0.12875,0.16585 -0.22788,0.37422 -0.2977,0.62517 -0.0676,0.25095 -0.10163,0.53459 -0.10163,0.851 0,0.63938 0.13401,1.12926 0.40241,1.46967 0.2684,0.33824 0.62855,0.50712 1.08026,0.50712 0.45171,0 0.81061,-0.16888 1.07685,-0.50712 0.26841,-0.34041 0.40241,-0.83029 0.40241,-1.46967 0,-0.32295 -0.0345,-0.60909 -0.10437,-0.85785 -0.0698,-0.24877 -0.16804,-0.45465 -0.29462,-0.61832 -0.12874,-0.16802 -0.2848,-0.29382 -0.4681,-0.37674 -0.18112,-0.0851 -0.38523,-0.12729 -0.61217,-0.12729 z m -17.48242,0.0979 -0.53688,3.5e-4 v 1.94735 h 0.44176 c 0.26186,0 0.47395,-0.0204 0.63543,-0.0619 0.16148,-0.0436 0.29548,-0.12015 0.4024,-0.22926 0.096,-0.0982 0.16577,-0.20497 0.20942,-0.32063 0.0436,-0.11565 0.0654,-0.25124 0.0654,-0.40617 0,-0.16802 -0.0294,-0.31396 -0.0883,-0.43834 -0.0567,-0.12439 -0.14393,-0.22598 -0.26176,-0.30454 -0.10256,-0.0677 -0.2225,-0.11569 -0.35998,-0.14405 -0.13529,-0.0283 -0.30452,-0.0428 -0.50746,-0.0428 z m 3.68565,0.56015 c 0.49316,0 0.88785,0.16923 1.18463,0.50746 0.29677,0.33606 0.44552,0.81028 0.44552,1.42347 0,0.61537 -0.14875,1.09119 -0.44552,1.42725 -0.29678,0.33387 -0.69147,0.50095 -1.18463,0.50095 -0.50845,0 -0.90866,-0.1726 -1.20107,-0.51738 -0.29023,-0.34696 -0.43559,-0.81727 -0.43559,-1.41082 0,-0.611 0.14965,-1.08523 0.4486,-1.42347 0.30114,-0.33823 0.69707,-0.50746 1.18806,-0.50746 z m 5.51871,0 c 0.36005,0 0.64156,0.1187 0.8445,0.35656 0.20294,0.23567 0.3042,0.57804 0.3042,1.02757 v 2.37337 h -0.6149 v -2.08183 c 0,-0.16802 -0.009,-0.32374 -0.0264,-0.46777 -0.0153,-0.1462 -0.0459,-0.26311 -0.0917,-0.35039 -0.0502,-0.0917 -0.11995,-0.15927 -0.20942,-0.20292 -0.0895,-0.0458 -0.21189,-0.0688 -0.36682,-0.0688 -0.15275,0 -0.31093,0.0412 -0.4746,0.12421 -0.16148,0.0807 -0.31968,0.18662 -0.47461,0.31755 v 2.72992 h -0.61524 v -3.65621 h 0.61524 v 0.40617 c 0.1833,-0.16366 0.36445,-0.28945 0.54339,-0.37674 0.17893,-0.0873 0.36773,-0.13072 0.56631,-0.13072 z m 25.54765,0 h 3.4e-4 c 0.22695,0 0.42733,0.0324 0.6019,0.0979 0.17457,0.0655 0.32725,0.16831 0.45818,0.30796 0.13092,0.13966 0.23163,0.31102 0.30146,0.51396 0.0698,0.20076 0.10437,0.44705 0.10437,0.73945 v 0.33398 h -2.53318 c 0,0.42552 0.10678,0.75045 0.32063,0.97521 0.21386,0.22476 0.50942,0.33739 0.88693,0.33739 0.1353,0 0.2675,-0.0153 0.39625,-0.0458 0.13093,-0.0305 0.24873,-0.0701 0.35347,-0.11805 0.11129,-0.0502 0.2049,-0.0982 0.28128,-0.14406 0.0764,-0.048 0.14006,-0.0923 0.19025,-0.13379 h 0.0356 v 0.67102 c -0.072,0.0283 -0.16135,0.0642 -0.26827,0.10779 -0.10693,0.0414 -0.20301,0.0742 -0.28812,0.0982 -0.12002,0.0327 -0.22893,0.0579 -0.32713,0.0753 -0.096,0.0175 -0.21842,0.026 -0.36681,0.026 -0.58263,0 -1.03516,-0.16336 -1.35813,-0.49068 -0.32077,-0.32951 -0.48144,-0.79643 -0.48144,-1.4009 0,-0.59572 0.15605,-1.06941 0.4681,-1.42074 0.31206,-0.35351 0.72024,-0.53004 1.22433,-0.53004 z m -63.50487,0.009 c -0.11727,0.001 -0.23966,0.0171 -0.36511,0.0486 -0.85946,0.21572 -0.95278,1.59113 -0.13756,2.02743 0.65835,0.35233 1.33249,0.0924 1.60244,-0.61764 0.29663,-0.78019 -0.2789,-1.46718 -1.09977,-1.45804 z m 58.17299,0.004 c 0.25094,0 0.46235,0.0196 0.63475,0.0589 0.17238,0.0393 0.32754,0.10993 0.46502,0.21249 0.13311,0.10038 0.23223,0.23046 0.2977,0.38975 0.0655,0.15931 0.0982,0.35361 0.0982,0.58274 v 2.50066 h -0.61183 v -0.38974 c -0.0502,0.0371 -0.11815,0.0898 -0.20325,0.1574 -0.0829,0.0655 -0.16337,0.11778 -0.24193,0.15706 -0.1091,0.0568 -0.21497,0.10016 -0.31754,0.13072 -0.10037,0.0305 -0.24237,0.0462 -0.42567,0.0462 -0.15057,0 -0.29347,-0.0288 -0.42876,-0.0855 -0.13529,-0.0567 -0.25433,-0.13594 -0.35689,-0.2385 -0.0982,-0.10039 -0.1765,-0.2237 -0.23542,-0.36991 -0.0589,-0.14838 -0.0886,-0.30443 -0.0886,-0.4681 0,-0.25312 0.0535,-0.46792 0.16049,-0.64467 0.10693,-0.17894 0.27579,-0.32093 0.50711,-0.42567 0.20512,-0.0938 0.44747,-0.15842 0.72679,-0.19334 0.27932,-0.0371 0.58075,-0.064 0.9037,-0.0814 v -0.11839 c 0,-0.14403 -0.022,-0.25934 -0.0657,-0.34663 -0.0436,-0.0895 -0.10484,-0.15833 -0.1834,-0.20634 -0.0786,-0.0502 -0.17466,-0.0829 -0.28812,-0.0982 -0.11348,-0.0175 -0.23003,-0.026 -0.35006,-0.026 -0.14184,0 -0.30892,0.0217 -0.50095,0.0654 -0.19203,0.0414 -0.3842,0.10266 -0.57623,0.18341 h -0.0359 v -0.62517 c 0.11347,-0.0327 0.27629,-0.0688 0.48795,-0.10813 0.21167,-0.0393 0.42128,-0.0589 0.62859,-0.0589 z m -23.45966,0.0883 h 0.61558 v 3.65621 h -0.61558 z m 28.75561,0.40583 c -0.16366,0 -0.30352,0.0251 -0.41917,0.0753 -0.11348,0.048 -0.21688,0.11866 -0.31071,0.21249 -0.0917,0.096 -0.16141,0.20313 -0.20941,0.32097 -0.048,0.11565 -0.0786,0.25088 -0.0917,0.40582 h 1.93436 c -0.004,-0.16585 -0.0239,-0.30873 -0.0589,-0.42875 -0.0349,-0.12002 -0.0851,-0.22128 -0.15057,-0.3042 -0.072,-0.0917 -0.16472,-0.16141 -0.27819,-0.20941 -0.11129,-0.048 -0.24991,-0.0722 -0.41575,-0.0722 z m -31.03043,0.0229 c -0.32078,0 -0.5683,0.11567 -0.74288,0.34698 -0.1724,0.22912 -0.25869,0.58038 -0.25869,1.05391 0,0.45826 0.0863,0.80649 0.25869,1.04435 0.17457,0.23567 0.4221,0.35347 0.74288,0.35347 0.31641,0 0.5609,-0.11566 0.73329,-0.34697 0.17457,-0.23349 0.26177,-0.58386 0.26177,-1.05085 0,-0.47353 -0.0863,-0.82479 -0.25869,-1.05391 -0.17239,-0.23131 -0.41777,-0.34698 -0.73637,-0.34698 z m 26.61833,1.31261 c -0.1462,0.0131 -0.33162,0.0315 -0.55639,0.0554 -0.22258,0.0219 -0.40283,0.0537 -0.5403,0.0951 -0.16366,0.0502 -0.2989,0.12759 -0.40583,0.23234 -0.10692,0.10256 -0.16048,0.24668 -0.16048,0.43217 0,0.20949 0.0587,0.36768 0.17657,0.4746 0.11783,0.10693 0.29009,0.16015 0.51703,0.16015 0.19421,0 0.37018,-0.0412 0.5273,-0.12422 0.15712,-0.0851 0.30463,-0.18884 0.4421,-0.31103 z" /></g></g></svg>
